<svg width="22" height="20" viewBox="0 0 22 20" fill="none" xmlns="http://www.w3.org/2000/svg">
<path d="M10.0488 2.16309C10.3482 1.24177 11.6518 1.24178 11.9512 2.16309L12.9678 5.29199C13.3694 6.52779 14.5209 7.36405 15.8203 7.36426H19.1104C20.0791 7.36426 20.482 8.60443 19.6982 9.17383L17.0371 11.1074C15.9856 11.8714 15.5456 13.2258 15.9473 14.4619L16.9639 17.5898C17.2632 18.5112 16.2085 19.2774 15.4248 18.708L12.7637 16.7744C11.7122 16.0105 10.2878 16.0105 9.23633 16.7744L6.5752 18.708C5.79148 19.2774 4.73678 18.5112 5.03613 17.5898L6.05273 14.4619C6.45436 13.2258 6.01435 11.8714 4.96289 11.1074L2.30176 9.17383C1.51804 8.60443 1.92093 7.36426 2.88965 7.36426H6.17969C7.47909 7.36405 8.63059 6.52779 9.03223 5.29199L10.0488 2.16309Z" fill="white" stroke="#622C80" stroke-width="2"/>
</svg>
