<svg width="46" height="16" viewBox="0 0 46 16" fill="none" xmlns="http://www.w3.org/2000/svg">
<path d="M37.9631 11.9894C37.9631 12.2971 37.8125 12.5614 37.2869 13.0969L36.8571 13.5346H38.0217V14.0917H35.8792V13.7151L36.8605 12.7198C37.2209 12.3544 37.305 12.1627 37.305 11.9961C37.305 11.779 37.1837 11.634 36.8933 11.634C36.6214 11.634 36.4743 11.8512 36.4743 12.0756H35.8167C35.8167 11.4963 36.2611 11.062 36.8933 11.062C37.5656 11.062 37.9626 11.453 37.9626 11.9884L37.9631 11.9894Z" fill="#4A8ECC"/>
<path d="M40.767 12.6149C40.767 13.6463 40.2746 14.1639 39.6204 14.1639C38.9662 14.1639 38.4739 13.6463 38.4739 12.6149C38.4739 11.5835 38.9662 11.0625 39.6204 11.0625C40.2746 11.0625 40.767 11.5801 40.767 12.6149ZM39.1061 12.6149C39.1061 13.2842 39.3266 13.5885 39.6204 13.5885C39.9143 13.5885 40.1348 13.2847 40.1348 12.6149C40.1348 11.9451 39.9143 11.6379 39.6204 11.6379C39.3266 11.6379 39.1061 11.9417 39.1061 12.6149Z" fill="#4A8ECC"/>
<path d="M43.3324 11.9894C43.3324 12.2971 43.1819 12.5614 42.6563 13.0969L42.2265 13.5346H43.3911V14.0917H41.2486V13.7151L42.2299 12.7198C42.5902 12.3544 42.6743 12.1627 42.6743 11.9961C42.6743 11.779 42.5531 11.634 42.2627 11.634C41.9908 11.634 41.8436 11.8512 41.8436 12.0756H41.186C41.186 11.4963 41.6305 11.062 42.2627 11.062C42.9349 11.062 43.332 11.453 43.332 11.9884L43.3324 11.9894Z" fill="#4A8ECC"/>
<path d="M43.8179 13.2304H44.4755C44.5014 13.4659 44.6373 13.6031 44.9126 13.6031C45.1879 13.6031 45.3497 13.4042 45.3497 13.1326C45.3497 12.8611 45.1879 12.6661 44.9013 12.6661C44.6921 12.6661 44.5596 12.7566 44.4789 12.8649H43.8726L43.9606 11.1426H45.8533V11.7035H44.5674L44.5342 12.2573C44.6627 12.1812 44.8246 12.134 45.0153 12.134C45.6035 12.134 46 12.5067 46 13.1326C46 13.7586 45.5296 14.1607 44.9121 14.1607C44.2618 14.1607 43.8648 13.7986 43.8169 13.2304H43.8179Z" fill="#4A8ECC"/>
<path d="M39.0236 4.05312V2.70586H40.4909C40.7941 2.70586 41.0239 2.46318 41.0239 2.00527C41.0239 1.54735 40.7941 1.30371 40.4909 1.30371H35.2545V2.70634H37.1251V4.0536C37.1251 5.37148 36.8699 6.5921 35.0168 6.5921V7.99425C36.136 7.99425 37.4033 7.66298 38.0741 6.37061C38.745 7.66346 40.0128 7.99425 41.1319 7.99425V6.5921C39.2794 6.5921 39.0236 5.37148 39.0236 4.0536" fill="#4A8ECC"/>
<path d="M12.167 7.84498C12.167 7.38659 11.9372 7.14391 11.634 7.14391H8.95761V6.13612H10.8552C11.1578 6.13612 11.3881 5.89344 11.3881 5.43504C11.3881 4.97665 11.1578 4.73397 10.8552 4.73397H4.46775V2.70586H10.8552C11.1583 2.70586 11.3881 2.46318 11.3881 2.00527C11.3881 1.54735 11.1583 1.30371 10.8552 1.30371H2.3008V4.96702C2.3008 5.60887 2.93544 6.12938 3.65563 6.12938C4.37583 6.12938 6.88992 6.13708 6.88992 6.13708V7.14487H0.817383V8.54702H11.6345C11.9377 8.54702 12.1674 8.30386 12.1674 7.84595" fill="#E33D8A"/>
<path d="M42.5566 0.995117C41.9597 0.995117 41.6824 1.26332 41.6824 1.59459V3.65015H40.1658V5.0523H41.6824V9.74266H43.4318V1.59459C43.4318 1.26332 43.1541 0.995117 42.5571 0.995117" fill="#4A8ECC"/>
<path d="M44.9118 0.995117C44.3143 0.995117 44.0371 1.26332 44.0371 1.59459V9.74314H45.7865V1.59459C45.7865 1.26332 45.5088 0.995117 44.9123 0.995117" fill="#4A8ECC"/>
<path d="M13.03 5.16031C13.03 6.78058 14.1844 8.09799 16.0966 8.09799C18.0088 8.09799 19.1632 6.7801 19.1632 5.16031C19.1632 4.1347 18.6992 3.23188 17.8734 2.70607H18.8791C19.1818 2.70607 19.4115 2.46339 19.4115 2.005C19.4115 1.5466 19.1818 1.30392 18.8791 1.30392H17.0456V0.599958C17.0456 0.268199 16.7444 0 16.0966 0C15.4488 0 15.1471 0.267718 15.1471 0.599476V1.30344H12.6794V2.70607H14.3193C13.494 3.23188 13.03 4.1347 13.03 5.16031ZM16.0966 3.39463C16.8393 3.39463 17.2642 4.18719 17.2642 5.16031C17.2642 6.13344 16.8398 6.92696 16.0966 6.92696C15.3534 6.92696 14.9285 6.1344 14.9285 5.16031C14.9285 4.18622 15.3534 3.39463 16.0966 3.39463Z" fill="#E33D8A"/>
<path d="M29.8081 4.72744C30.3533 5.49208 31.4994 6.19363 33.8751 6.19363V4.79148C32.7114 4.79148 30.7577 4.58588 30.7577 3.20829V2.70608H33.1749C33.4776 2.70608 33.7079 2.4634 33.7079 2.00548C33.7079 1.54757 33.4776 1.30393 33.1749 1.30393H30.7577V0.599965C30.7577 0.268688 30.457 0.000488281 29.8081 0.000488281C29.1593 0.000488281 28.8591 0.268688 28.8591 0.599965V1.30393H25.9783V2.70656H28.8591V3.20877C28.8591 4.58636 26.9054 4.79197 25.7412 4.79197V6.19412C28.1169 6.19412 29.2635 5.49304 29.8081 4.72793" fill="#4A8ECC"/>
<path d="M33.5667 7.14355H25.446V8.54618H28.8593V9.7432H26.1007V11.1454H31.6931V13.9501H33.5917V10.9123C33.5917 10.2705 33.0636 9.74995 32.4119 9.74995V9.74272H30.7578V8.5457H33.5672C33.8699 8.5457 34.1001 8.30254 34.1001 7.84414C34.1001 7.38575 33.8699 7.14307 33.5672 7.14307" fill="#4A8ECC"/>
<path d="M23.2189 0.995117C22.6214 0.995117 22.3442 1.26332 22.3442 1.59459V3.58755H21.5809V1.59459C21.5809 1.26332 21.3037 0.995117 20.7067 0.995117C20.1097 0.995117 19.832 1.26332 19.832 1.59459V8.54659H21.5809V4.99018H22.3442V8.54659H24.0936V1.59459C24.0936 1.26332 23.8158 0.995117 23.2194 0.995117" fill="#E33D8A"/>
<path d="M19.1798 9.10791C16.7229 9.10791 15.0948 10.4802 14.4905 11.4326C14.356 11.6772 14.3228 11.9189 14.5814 12.1597C14.7784 12.3403 15.0283 12.5627 15.2058 12.6971C15.6654 11.45 16.8486 10.3401 18.5833 10.3401C19.8883 10.3401 20.9937 11.333 20.9937 12.5531C20.9937 13.7732 19.858 14.7671 18.4709 14.7671C16.1743 14.7671 14.7222 13.1738 13.2119 11.7658C11.6503 10.3786 10.0426 9.10839 7.53101 9.10839C5.168 9.10839 2.94531 10.4099 2.94531 12.5536C2.94531 14.6972 4.88099 15.9992 7.244 15.9992C9.60701 15.9992 11.3285 14.6269 11.9324 13.674C12.0668 13.4304 12.1001 13.1882 11.8424 12.9474C11.6449 12.7674 11.395 12.5449 11.218 12.4106C10.7575 13.6577 9.57474 14.7675 7.83952 14.7675C6.53554 14.7675 5.42909 13.7742 5.42909 12.5536C5.42909 11.333 6.56488 10.3406 7.95246 10.3406C10.2495 10.3406 11.7011 11.9339 13.2119 13.3418C14.7731 14.729 16.3807 15.9997 18.8923 15.9997C21.2553 15.9997 23.478 14.6982 23.478 12.5536C23.478 10.4089 21.5423 9.10839 19.1798 9.10839" fill="#E33D8A"/>
</svg>
