<svg width="21" height="20" viewBox="0 0 21 20" fill="none" xmlns="http://www.w3.org/2000/svg">
<path d="M9.16406 1.69141C9.46342 0.770092 10.7671 0.770099 11.0664 1.69141L12.083 4.82031C12.4846 6.05611 13.6361 6.89237 14.9355 6.89258H18.2256C19.1943 6.89258 19.5972 8.13275 18.8135 8.70215L16.1523 10.6357C15.1009 11.3997 14.6609 12.7542 15.0625 13.9902L16.0791 17.1182C16.3785 18.0395 15.3238 18.8057 14.54 18.2363L11.8789 16.3027C10.8274 15.5388 9.40302 15.5388 8.35156 16.3027L5.69043 18.2363C4.90671 18.8057 3.85202 18.0395 4.15137 17.1182L5.16797 13.9902C5.56959 12.7542 5.12959 11.3997 4.07812 10.6357L1.41699 8.70215C0.633276 8.13275 1.03616 6.89258 2.00488 6.89258H5.29492C6.59433 6.89237 7.74582 6.05611 8.14746 4.82031L9.16406 1.69141Z" fill="white" stroke="#075D5D" stroke-width="2"/>
</svg>
