<svg width="151" height="25" viewBox="0 0 151 25" fill="none" xmlns="http://www.w3.org/2000/svg">
<mask id="mask0_2748_7138" style="mask-type:luminance" maskUnits="userSpaceOnUse" x="0" y="0" width="151" height="25">
<path d="M150.862 0H0V25H150.862V0Z" fill="white"/>
</mask>
<g mask="url(#mask0_2748_7138)">
<path d="M20.3344 0.3911C20.3128 0.307877 20.2638 0.234396 20.1952 0.182574C20.1267 0.130752 20.0427 0.103628 19.9568 0.1056H10.946C10.4382 0.105663 9.9391 0.237447 9.49734 0.4881L1.11201 5.2556C0.674089 5.50344 0.309435 5.86277 0.0550195 6.29717C-0.199397 6.73156 -0.334527 7.22557 -0.33667 7.7291V17.2661C-0.335222 17.7696 -0.200374 18.2638 0.0541214 18.6981C0.308617 19.1325 0.673655 19.4915 1.11201 19.7386L3.39842 21.0386C3.49562 21.094 3.60553 21.1231 3.71737 21.1231C3.82921 21.1231 3.93913 21.094 4.03633 21.0386L9.05474 18.1636C9.08521 18.1465 9.11056 18.1215 9.12821 18.0913C9.14586 18.0612 9.15516 18.0268 9.15516 17.9918C9.15516 17.9569 9.14586 17.9225 9.12821 17.8924C9.11056 17.8622 9.08521 17.8372 9.05474 17.8201L5.32066 15.6961V9.3296L5.43056 9.2381L10.2536 6.4926L20.1526 0.8256C20.228 0.784952 20.2872 0.719631 20.3203 0.64055C20.3534 0.561468 20.3584 0.473415 20.3344 0.3911Z" fill="#00479B"/>
<path d="M22.2283 17.2705V7.7335C22.2266 7.22994 22.0917 6.73581 21.8372 6.30141C21.5827 5.86702 21.2178 5.50786 20.7796 5.2605L18.4932 3.9605C18.396 3.90513 18.2861 3.87602 18.1742 3.87602C18.0624 3.87602 17.9525 3.90513 17.8553 3.9605L12.8349 6.838C12.8044 6.85513 12.779 6.88006 12.7614 6.91025C12.7437 6.94043 12.7344 6.97478 12.7344 7.00975C12.7344 7.04472 12.7437 7.07906 12.7614 7.10925C12.779 7.13943 12.8044 7.16437 12.8349 7.1815L16.5699 9.303V15.6705L16.459 15.762L11.636 18.507L1.73901 24.1745C1.66359 24.2151 1.60438 24.2805 1.57129 24.3595C1.53819 24.4386 1.53321 24.5267 1.55717 24.609C1.57877 24.6922 1.62782 24.7657 1.69637 24.8175C1.76492 24.8693 1.84895 24.8965 1.93483 24.8945H10.9456C11.4534 24.8943 11.9525 24.7625 12.3943 24.512L20.7791 19.743C21.2169 19.4952 21.5815 19.1359 21.8359 18.7016C22.0903 18.2673 22.2255 17.7734 22.2278 17.27" fill="#00A2A2"/>
<path d="M6.77087 10.434V14.5905C6.77131 14.6179 6.77889 14.6447 6.79286 14.6683C6.80683 14.6919 6.8267 14.7114 6.85052 14.7249C6.87433 14.7385 6.90126 14.7455 6.92864 14.7455C6.95603 14.7454 6.98292 14.7382 7.00666 14.7245L10.9406 12.48V7.935L6.87428 10.258C6.84293 10.2754 6.81684 10.3009 6.79873 10.3319C6.78063 10.3628 6.77118 10.3981 6.77137 10.434" fill="#00A2A2"/>
<path d="M15.1093 10.434V14.5905C15.1088 14.6179 15.1012 14.6447 15.0873 14.6683C15.0733 14.6919 15.0534 14.7114 15.0296 14.7249C15.0058 14.7385 14.9789 14.7455 14.9515 14.7455C14.9241 14.7454 14.8972 14.7382 14.8735 14.7245L10.9401 12.4795V7.935L15.0063 10.258C15.0377 10.2754 15.0638 10.3009 15.0819 10.3319C15.1 10.3628 15.1094 10.3981 15.1093 10.434Z" fill="#00479B"/>
<path d="M34.9661 4.0955H33.4865V11.771H34.9661V8.003H36.4283V6.571H34.9661V4.0955Z" fill="#00479B"/>
<path d="M27.8266 10.4895C28.5542 10.7832 29.3673 10.7832 30.095 10.4895C30.4405 10.3504 30.7595 10.1529 31.0381 9.9055C31.2996 9.65569 31.5136 9.36039 31.6696 9.034C31.8241 8.70573 31.9047 8.34749 31.9056 7.98461C31.9066 7.62173 31.8279 7.26307 31.675 6.934C31.5781 6.74089 31.4609 6.55869 31.3254 6.3905H32.3954V5.1405H29.7723V3.8855H28.1558V5.1405H25.3943V6.3905H26.6027C26.4683 6.55761 26.3541 6.74004 26.2625 6.934C26.1006 7.25904 26.0163 7.61728 26.0162 7.9805C26.0155 8.3448 26.0964 8.70464 26.253 9.0335C26.4088 9.36074 26.6229 9.65676 26.8849 9.907C27.1637 10.1532 27.4818 10.3502 27.8266 10.4895ZM27.4339 7.9805C27.4325 7.78524 27.4718 7.59183 27.5492 7.41259C27.6266 7.23336 27.7404 7.07224 27.8835 6.9395C28.1712 6.65787 28.5576 6.50017 28.96 6.50017C29.3624 6.50017 29.7489 6.65787 30.0365 6.9395C30.179 7.07285 30.2926 7.23409 30.3703 7.4132C30.448 7.59231 30.4881 7.78549 30.4881 7.98075C30.4881 8.176 30.448 8.36918 30.3703 8.54829C30.2926 8.72741 30.179 8.88864 30.0365 9.022C29.7489 9.30363 29.3624 9.46133 28.96 9.46133C28.5576 9.46133 28.1712 9.30363 27.8835 9.022C27.7404 8.88916 27.6265 8.72795 27.5491 8.54863C27.4717 8.36932 27.4325 8.17583 27.4339 7.9805Z" fill="#00479B"/>
<path d="M28.2827 11.234H26.79V15.005H35.3287V13.7075H28.2852L28.2827 11.234Z" fill="#00479B"/>
<path d="M46.8093 4.37849H37.9968V5.67849H45.3296V8.62849H37.3369V9.90149H41.6715V11.1245H37.8749V12.434H45.3331V15.1415H46.8128V11.1245H43.1346V9.89949H47.4697V8.62449H46.8078L46.8093 4.37849Z" fill="#00479B"/>
<path d="M48.8903 10.304H53.2243V10.7185C53.1141 10.7485 53.0098 10.7818 52.9116 10.8185C52.5944 10.9437 52.3011 11.1225 52.0444 11.347C51.8003 11.5693 51.6009 11.8363 51.4569 12.1335C51.3132 12.431 51.2386 12.7571 51.2386 13.0875C51.2386 13.4179 51.3132 13.744 51.4569 14.0415C51.6012 14.3389 51.8009 14.6061 52.0454 14.8285C52.2997 15.051 52.5908 15.2275 52.9056 15.35C53.5833 15.6108 54.3335 15.6108 55.0112 15.35C55.3262 15.227 55.6175 15.0504 55.8724 14.828C56.1164 14.6056 56.3158 14.3387 56.4598 14.0415C56.6036 13.744 56.6782 13.4179 56.6782 13.0875C56.6782 12.7571 56.6036 12.4309 56.4598 12.1335C56.3156 11.836 56.1159 11.5689 55.8714 11.3465C55.6175 11.1244 55.3285 10.9461 55.0162 10.819C54.9106 10.7767 54.802 10.7421 54.6915 10.7155V10.3035H59.0265V9.01849H48.8903V10.304ZM53.9586 14.2975C53.6162 14.3037 53.2851 14.1747 53.037 13.9385C52.9171 13.8317 52.8213 13.7008 52.7556 13.5543C52.6899 13.4078 52.656 13.2491 52.656 13.0885C52.656 12.9279 52.6899 12.7692 52.7556 12.6227C52.8213 12.4762 52.9171 12.3453 53.037 12.2385C53.2883 12.0074 53.6171 11.8791 53.9584 11.8791C54.2996 11.8791 54.6285 12.0074 54.8798 12.2385C54.9997 12.3452 55.0958 12.4761 55.1615 12.6226C55.2273 12.7691 55.2613 12.9279 55.2613 13.0885C55.2613 13.2491 55.2273 13.4079 55.1615 13.5544C55.0958 13.7009 54.9997 13.8318 54.8798 13.9385C54.6318 14.1747 54.3009 14.3037 53.9586 14.2975Z" fill="#00479B"/>
<path d="M50.0992 8.6745L53.9587 6.0945L57.7737 8.6445L57.8182 8.674L58.6674 7.6345L55.4414 5.541H58.4656V4.28H49.4518V5.541H52.4761L49.304 7.6005L49.2495 7.635L50.0648 8.635L50.0992 8.6745Z" fill="#00479B"/>
<path d="M65.5146 6.27849L69.1044 10.762L69.1393 10.806L70.2213 10.0225L70.2713 9.98699L65.5606 4.16749L65.5146 4.11099L60.784 9.93949L60.745 9.98949L61.9159 10.807L65.5146 6.27849Z" fill="#00479B"/>
<path d="M66.2615 9.474H64.7688V12.774H60.4468V14.0715H70.5835V12.7725H66.2615V9.474Z" fill="#00479B"/>
<path d="M76.9666 7.879H78.135V11.6945H79.5647V4.0945H78.135V6.5945H76.9666V4.2945H75.5234V5.9315H73.6671V4.2925H72.2264V10.4275H76.9666V7.879ZM73.6696 7.19H75.5234V9.154H73.6671L73.6696 7.19Z" fill="#00479B"/>
<path d="M74.5559 11.234H73.0637V15.005H82.2513V13.7075H74.5559V11.234Z" fill="#00479B"/>
<path d="M82.0135 4.0955H80.5593V11.6945H82.0135V4.0955Z" fill="#00479B"/>
<path d="M90.5337 6.5135V5.252H87.8982V3.9845H86.3061V5.252H83.5446V6.5135H86.1862L83.4248 12.486L83.4003 12.5395L84.6291 13.067L84.6826 13.0905L87.1124 7.706L89.5197 13.0385L89.5437 13.0915L90.7465 12.564L90.801 12.5405L88.0161 6.5145L90.5337 6.5135Z" fill="#00479B"/>
<path d="M91.6402 7.5415H89.6665V8.839H91.6402V15.1155H93.1198V4.095H91.6402V7.5415Z" fill="#00479B"/>
<path d="M95.3253 5.67649H99.5215V12.605H101.002V4.36549H95.3253V5.67649Z" fill="#00479B"/>
<path d="M104.675 4.0955H103.196V15.116H104.675V4.0955Z" fill="#00479B"/>
<path d="M114.777 11.307H109.323V10.372H107.868V15.0295H116.231V10.372H114.777V11.307ZM109.323 12.5685H114.777V13.7565H109.323V12.5685Z" fill="#00479B"/>
<path d="M114.751 6.3355H112.843C112.809 6.22097 112.766 6.10902 112.716 6.0005C112.555 5.65193 112.33 5.33689 112.053 5.072C111.768 4.80147 111.432 4.59007 111.065 4.45C110.29 4.15773 109.436 4.15773 108.661 4.45C108.294 4.58993 107.958 4.80135 107.674 5.072C107.396 5.33644 107.171 5.65159 107.011 6.0005C106.85 6.34752 106.767 6.72551 106.767 7.108C106.767 7.48813 106.85 7.86376 107.011 8.208C107.171 8.55459 107.396 8.86761 107.673 9.1305C107.957 9.40129 108.293 9.61258 108.66 9.752C109.435 10.0449 110.29 10.0449 111.065 9.752C111.432 9.61252 111.768 9.40126 112.053 9.1305C112.33 8.86557 112.555 8.55073 112.715 8.2025C112.801 8.01658 112.866 7.82151 112.909 7.621H114.751V10.0575H116.23V4.0955H114.751L114.751 6.3355ZM109.225 8.568C109.028 8.48419 108.848 8.36677 108.692 8.221C108.539 8.0786 108.416 7.9073 108.33 7.717C108.243 7.52546 108.198 7.31757 108.198 7.10725C108.198 6.89694 108.243 6.68905 108.33 6.4975C108.416 6.30701 108.54 6.13541 108.692 5.9925C108.849 5.84735 109.029 5.73015 109.225 5.646C109.427 5.56043 109.644 5.51633 109.863 5.51633C110.082 5.51633 110.299 5.56043 110.501 5.646C110.697 5.73021 110.878 5.8474 111.035 5.9925C111.187 6.13527 111.31 6.30649 111.396 6.4965C111.483 6.68823 111.528 6.89628 111.528 7.10675C111.528 7.31723 111.483 7.52528 111.396 7.717C111.31 7.90727 111.187 8.07857 111.035 8.221C110.878 8.36644 110.698 8.48367 110.501 8.5675C110.299 8.65319 110.082 8.69735 109.863 8.69735C109.644 8.69735 109.427 8.65369 109.225 8.568Z" fill="#00479B"/>
<path d="M120.806 9.612C121.136 9.90894 121.516 10.1458 121.929 10.312C122.805 10.6623 123.783 10.6623 124.659 10.312C125.071 10.1461 125.451 9.90918 125.782 9.612C126.102 9.32158 126.362 8.97047 126.545 8.579C126.73 8.17995 126.825 7.74548 126.825 7.30575C126.825 6.86602 126.73 6.43155 126.545 6.0325C126.362 5.64032 126.103 5.28864 125.782 4.998C125.451 4.70098 125.072 4.46408 124.66 4.298C123.783 3.94732 122.805 3.94732 121.928 4.298C121.516 4.46393 121.136 4.70084 120.805 4.998C120.484 5.28863 120.225 5.64032 120.042 6.0325C119.857 6.43151 119.761 6.86599 119.761 7.30575C119.761 7.74551 119.857 8.17999 120.042 8.579C120.226 8.97066 120.485 9.32206 120.805 9.613M122.504 9.1225C122.259 9.02259 122.035 8.87586 121.847 8.6905C121.66 8.5144 121.509 8.30344 121.403 8.0695C121.296 7.82926 121.24 7.56899 121.24 7.30575C121.24 7.04251 121.296 6.78224 121.403 6.542C121.509 6.30716 121.66 6.09535 121.848 5.9185C122.036 5.73382 122.259 5.5879 122.504 5.489C123.009 5.28131 123.577 5.28131 124.083 5.489C124.327 5.58817 124.55 5.73462 124.738 5.92C124.925 6.09627 125.076 6.30761 125.182 6.542C125.29 6.78208 125.346 7.04241 125.346 7.30575C125.346 7.56908 125.29 7.82942 125.182 8.0695C125.075 8.30386 124.925 8.51529 124.738 8.692C124.549 8.87638 124.326 9.02241 124.082 9.122C123.576 9.32885 123.009 9.32935 122.504 9.1225Z" fill="#00479B"/>
<path d="M118.225 12.591H120.286V15.114H121.753V12.591H124.833V15.114H126.301V12.591H128.362V11.307H118.225V12.591Z" fill="#00479B"/>
<path d="M135.596 9.18399H139.406V7.93399H131.91V7.32399H139.253V6.11399H131.91V5.51399H139.253V4.26399H130.443V9.18049H134.103V9.86449H129.781V11.125H132.47C132.313 11.3095 132.178 11.5129 132.071 11.7305C131.909 12.0601 131.826 12.4228 131.828 12.79C131.827 13.1608 131.91 13.527 132.071 13.861C132.23 14.192 132.451 14.49 132.72 14.7395C133.303 15.268 134.061 15.5606 134.847 15.5606C135.634 15.5606 136.392 15.268 136.974 14.7395C137.244 14.4905 137.465 14.1924 137.624 13.861C137.785 13.5271 137.868 13.1609 137.867 12.79C137.869 12.4229 137.786 12.0603 137.624 11.731C137.517 11.5131 137.384 11.3095 137.227 11.125H139.916V9.86749H135.594L135.596 9.18399ZM134.235 14.2095C134.049 14.1306 133.878 14.0203 133.729 13.8835C133.584 13.7403 133.466 13.5728 133.379 13.3885C133.292 13.2015 133.247 12.9978 133.247 12.7915C133.247 12.5852 133.292 12.3814 133.379 12.1945C133.465 12.011 133.584 11.8444 133.729 11.7025C133.878 11.5644 134.049 11.4533 134.236 11.374C134.431 11.2922 134.639 11.2501 134.85 11.2501C135.061 11.2501 135.269 11.2922 135.464 11.374C135.65 11.4534 135.821 11.564 135.97 11.701C136.115 11.844 136.233 12.0114 136.32 12.1955C136.407 12.3823 136.453 12.586 136.453 12.7922C136.453 12.9985 136.407 13.2022 136.32 13.389C136.233 13.5729 136.115 13.74 135.97 13.8825C135.821 14.0201 135.65 14.1309 135.463 14.21C135.269 14.2914 135.06 14.3334 134.85 14.3334C134.639 14.3334 134.43 14.2914 134.236 14.21" fill="#00479B"/>
<path d="M143.84 13.7565V11.8865H142.348V15.0325H151.199V13.7565H143.84Z" fill="#00479B"/>
<path d="M143.959 11.768H145.451V9.84599H149.418V10.606H147.17V11.806H149.418V12.691H150.898V4.09599H149.418V8.60049H147.32C147.493 8.4016 147.639 8.18128 147.755 7.94499C147.917 7.60705 148 7.23673 147.998 6.86199C147.999 6.48356 147.916 6.10962 147.755 5.76699C147.595 5.42511 147.37 5.11761 147.092 4.86149C146.803 4.60609 146.471 4.40306 146.112 4.26149C145.352 3.95994 144.505 3.95994 143.745 4.26149C143.385 4.40294 143.054 4.60598 142.764 4.86149C142.487 5.11742 142.262 5.42455 142.101 5.76599C141.94 6.10858 141.858 6.48253 141.858 6.86099C141.857 7.23576 141.94 7.60605 142.102 7.94399C142.218 8.18023 142.364 8.40053 142.536 8.59949H141.221V9.84949H143.957L143.959 11.768ZM143.315 6.86099C143.314 6.65477 143.359 6.45091 143.446 6.26399C143.533 6.08006 143.651 5.91272 143.796 5.76949C143.943 5.62503 144.117 5.51 144.308 5.43049C144.505 5.34829 144.716 5.30597 144.929 5.30597C145.142 5.30597 145.353 5.34829 145.549 5.43049C145.74 5.51 145.914 5.62503 146.062 5.76949C146.207 5.91241 146.325 6.07982 146.412 6.26399C146.499 6.45088 146.544 6.65468 146.544 6.86099C146.544 7.0673 146.499 7.2711 146.412 7.45799C146.325 7.64204 146.207 7.80941 146.062 7.95249C145.914 8.0962 145.74 8.2107 145.549 8.28999C145.353 8.37203 145.142 8.41426 144.929 8.41426C144.716 8.41426 144.505 8.37203 144.308 8.28999C144.118 8.21058 143.944 8.0961 143.796 7.95249C143.651 7.80932 143.533 7.64197 143.446 7.45799C143.358 7.2713 143.313 7.06734 143.314 6.86099" fill="#00479B"/>
<path d="M26.7697 17.562H27.3192V19.255H27.3666L28.8727 17.562H29.5606L28.1094 19.162L29.5661 21.112H28.9047L27.7473 19.528L27.3196 20.0115V21.1115H26.7702L26.7697 17.562Z" fill="#00479B"/>
<path d="M30.2229 20.993C30.0315 20.8785 29.8774 20.7109 29.7793 20.5105C29.6762 20.2844 29.6228 20.0388 29.6228 19.7902C29.6228 19.5417 29.6762 19.2961 29.7793 19.07C29.8771 18.8691 30.0313 18.7011 30.2229 18.5865C30.4256 18.4738 30.6537 18.4147 30.8856 18.4147C31.1174 18.4147 31.3455 18.4738 31.5482 18.5865C31.7391 18.7014 31.8925 18.8694 31.9898 19.07C32.0923 19.2962 32.1454 19.5418 32.1454 19.7902C32.1454 20.0387 32.0923 20.2842 31.9898 20.5105C31.8924 20.7107 31.739 20.8783 31.5482 20.993C31.3454 21.1055 31.1174 21.1645 30.8856 21.1645C30.6537 21.1645 30.4257 21.1055 30.2229 20.993ZM31.2864 20.603C31.398 20.5156 31.4825 20.3984 31.5302 20.265C31.638 19.9575 31.638 19.6225 31.5302 19.315C31.4821 19.1813 31.3977 19.0637 31.2864 18.9755C31.1715 18.8889 31.0305 18.8443 30.8868 18.849C30.7433 18.8447 30.6025 18.8889 30.4872 18.9745C30.3756 19.0627 30.2907 19.1803 30.2419 19.314C30.1316 19.621 30.1316 19.9569 30.2419 20.264C30.2906 20.3973 30.3755 20.5144 30.4872 20.602C30.6047 20.683 30.7441 20.7263 30.8868 20.7263C31.0295 20.7263 31.1689 20.683 31.2864 20.602" fill="#00479B"/>
<path d="M32.6532 18.449H33.1662V18.8735H33.1947C33.2262 18.7811 33.2773 18.6967 33.3446 18.6261C33.4119 18.5555 33.4937 18.5004 33.5843 18.4645C33.678 18.4275 33.7779 18.4088 33.8786 18.4095C33.9543 18.4092 34.0301 18.4132 34.1054 18.4215V18.9215C34.0749 18.9145 34.0329 18.9075 33.9805 18.9005C33.9308 18.8938 33.8807 18.8903 33.8306 18.89C33.7155 18.8882 33.6016 18.9144 33.4989 18.9665C33.4035 19.0148 33.3235 19.089 33.2681 19.1805C33.2122 19.2738 33.1833 19.3807 33.1847 19.4895V21.1115H32.6537L32.6532 18.449Z" fill="#00479B"/>
<path d="M34.8762 20.996C34.6834 20.8845 34.528 20.7183 34.4296 20.5185C34.3214 20.2939 34.268 20.0468 34.2737 19.7975C34.269 19.5486 34.3224 19.3021 34.4296 19.0775C34.5261 18.876 34.6783 18.7065 34.8682 18.589C35.0656 18.4706 35.2924 18.4103 35.5226 18.415C35.7307 18.4126 35.9363 18.4605 36.122 18.5545C36.3089 18.6532 36.4613 18.8065 36.5591 18.994C36.6774 19.2288 36.7342 19.4897 36.7245 19.7525V19.939H34.5715V19.547H36.202C36.2041 19.4213 36.1755 19.297 36.1185 19.185C36.065 19.0808 35.9829 18.994 35.8818 18.935C35.7754 18.874 35.6546 18.8429 35.5321 18.845C35.398 18.8425 35.2661 18.8786 35.1519 18.949C35.0436 19.0163 34.9553 19.1114 34.8962 19.2245C34.8356 19.3393 34.8039 19.4672 34.8037 19.597V19.9C34.7993 20.0554 34.8319 20.2096 34.8987 20.35C34.9574 20.47 35.0504 20.5699 35.1659 20.637C35.2879 20.7053 35.4258 20.7398 35.5655 20.737C35.6541 20.7382 35.7423 20.7253 35.8268 20.699C35.8993 20.677 35.967 20.6417 36.0266 20.595C36.0784 20.5539 36.1215 20.5029 36.1535 20.445H36.6915C36.6528 20.5874 36.5797 20.718 36.4787 20.8255C36.3705 20.9388 36.2375 21.0254 36.0901 21.0785C35.9217 21.1398 35.7437 21.1699 35.5645 21.1675C35.3251 21.1732 35.0885 21.1149 34.8792 20.9985" fill="#00479B"/>
<path d="M38.5548 19.925L38.1876 19.95C38.0402 19.9529 37.8962 19.9952 37.7705 20.0725C37.7225 20.1045 37.6835 20.1483 37.6573 20.1996C37.6311 20.251 37.6184 20.3083 37.6207 20.366C37.6185 20.4418 37.6415 20.5162 37.6861 20.5775C37.7325 20.6375 37.7951 20.683 37.8664 20.7085C37.9512 20.7394 38.041 20.7545 38.1312 20.753C38.2589 20.7559 38.3854 20.7272 38.4994 20.6695C38.5984 20.6196 38.6816 20.5431 38.7396 20.4485C38.794 20.359 38.8225 20.2562 38.8221 20.1515V19.311C38.8248 19.2211 38.8032 19.1321 38.7596 19.0535C38.7167 18.9813 38.6517 18.9249 38.5743 18.8925C38.4782 18.8536 38.3752 18.835 38.2716 18.838C38.1812 18.8363 38.0912 18.8507 38.0058 18.8805C37.9349 18.9056 37.8705 18.9461 37.817 18.999C37.7687 19.0481 37.7342 19.1092 37.7171 19.176H37.1876C37.2042 19.0313 37.2625 18.8946 37.3554 18.7825C37.4578 18.6611 37.5895 18.568 37.7381 18.512C37.9148 18.4444 38.1029 18.4115 38.2921 18.415C38.4605 18.4142 38.628 18.4405 38.7881 18.493C38.9468 18.5463 39.086 18.6459 39.1877 18.779C39.3054 18.943 39.3636 19.1424 39.3526 19.344V21.1115H38.8351V20.7475H38.8141C38.7736 20.8252 38.7192 20.8948 38.6537 20.953C38.5756 21.0211 38.4855 21.074 38.388 21.109C38.2685 21.152 38.1422 21.1728 38.0153 21.1705C37.8549 21.1729 37.6959 21.1405 37.5492 21.0755C37.4157 21.016 37.3021 20.9193 37.222 20.797C37.1396 20.6663 37.0979 20.514 37.1021 20.3595C37.0922 20.245 37.1133 20.13 37.1634 20.0265C37.2134 19.9231 37.2905 19.8351 37.3864 19.772C37.6078 19.6446 37.857 19.5733 38.1122 19.564C38.1941 19.5583 38.2905 19.5525 38.4014 19.5465L38.7137 19.531C38.7771 19.5275 38.8231 19.526 38.8525 19.526L38.8595 19.907C38.7963 19.909 38.6945 19.915 38.5543 19.925" fill="#00479B"/>
<path d="M43.0881 18.2185C43.019 18.1374 42.9298 18.076 42.8293 18.0405C42.7116 17.9985 42.5872 17.978 42.4622 17.98C42.3323 17.9774 42.2031 18.0003 42.082 18.0475C41.9831 18.0858 41.8967 18.1507 41.8323 18.235C41.7737 18.3122 41.7425 18.4066 41.7433 18.5035C41.7402 18.5724 41.7557 18.6409 41.7883 18.7017C41.8208 18.7625 41.8691 18.8134 41.9282 18.849C42.0733 18.9378 42.2319 19.0025 42.3977 19.0405L42.7474 19.1305C42.9217 19.1717 43.0909 19.2321 43.252 19.3105C43.4016 19.3845 43.5315 19.4929 43.6311 19.627C43.7346 19.7727 43.7873 19.9484 43.781 20.127C43.7841 20.3186 43.7288 20.5066 43.6226 20.666C43.5078 20.8304 43.3483 20.9585 43.163 21.035C42.7081 21.2108 42.2045 21.2132 41.7478 21.042C41.5626 20.9673 41.4016 20.8427 41.2828 20.682C41.168 20.5193 41.1033 20.3265 41.0964 20.1275H41.6459C41.6528 20.2422 41.6963 20.3517 41.7698 20.44C41.8458 20.5277 41.9435 20.5937 42.0531 20.6315C42.1787 20.6757 42.3111 20.6973 42.4442 20.6955C42.5842 20.6977 42.7234 20.6732 42.8543 20.6235C42.9648 20.5834 43.0624 20.5143 43.1371 20.4235C43.2039 20.338 43.2392 20.232 43.237 20.1235C43.2398 20.0325 43.2095 19.9437 43.1516 19.8735C43.088 19.8013 43.0089 19.7446 42.9203 19.7075C42.8017 19.6569 42.6792 19.616 42.5541 19.585L42.13 19.4725C41.8726 19.4151 41.6334 19.2949 41.4336 19.1225C41.3538 19.0473 41.2908 18.9559 41.2489 18.8544C41.2071 18.7529 41.1873 18.6437 41.1908 18.534C41.1878 18.3428 41.2469 18.1557 41.3592 18.001C41.477 17.8423 41.6352 17.7181 41.8173 17.6415C42.0241 17.5535 42.247 17.5099 42.4717 17.5135C42.6934 17.5097 42.9134 17.5524 43.1176 17.639C43.2951 17.7128 43.449 17.8339 43.5627 17.989C43.6687 18.137 43.7269 18.3139 43.7295 18.496H43.2C43.1909 18.3938 43.1512 18.2967 43.0861 18.2175" fill="#00479B"/>
<path d="M45.017 17.562L46.1604 20.312H46.2029L47.3444 17.562H48.0108V21.112H47.4882V18.5495H47.4548L46.3962 21.1055H45.9636L44.9046 18.5445H44.8746V21.1105H44.3501V17.5605L45.017 17.562Z" fill="#00479B"/>
<path d="M48.722 17.562H50.984V18.0265H49.269V19.1025H50.8676V19.565H49.269V20.646H51.0035V21.1105H48.722V17.562Z" fill="#00479B"/>
<path d="M52.9346 18.92C52.8326 18.8537 52.7123 18.8214 52.5909 18.8275C52.4997 18.826 52.4091 18.8416 52.3237 18.8735C52.2518 18.8995 52.1879 18.9438 52.1383 19.002C52.0946 19.0528 52.0711 19.1179 52.0724 19.185C52.0718 19.2244 52.0806 19.2634 52.098 19.2987C52.1153 19.3341 52.1408 19.3649 52.1723 19.3885C52.2681 19.4565 52.3778 19.5024 52.4935 19.523L52.9261 19.62C53.1311 19.656 53.3226 19.7468 53.4801 19.883C53.5409 19.9423 53.5886 20.0137 53.6201 20.0926C53.6517 20.1715 53.6665 20.2561 53.6634 20.341C53.6658 20.4939 53.6192 20.6435 53.5305 20.768C53.4329 20.8994 53.3003 21.0006 53.1479 21.06C52.9605 21.1345 52.76 21.1706 52.5584 21.166C52.3693 21.17 52.181 21.1391 52.0029 21.075C51.8567 21.0225 51.7279 20.9304 51.6308 20.809C51.5369 20.6854 51.4782 20.5388 51.4609 20.3845H52.0044C52.0123 20.4394 52.0317 20.492 52.0613 20.5389C52.0909 20.5858 52.1301 20.6259 52.1763 20.6565C52.2907 20.7223 52.4217 20.7535 52.5534 20.7465C52.6552 20.7483 52.7565 20.7331 52.8532 20.7015C52.9293 20.6777 52.9975 20.6336 53.0505 20.574C53.0957 20.5206 53.12 20.4525 53.1189 20.3825C53.1199 20.3415 53.1114 20.3009 53.0941 20.2638C53.0767 20.2266 53.051 20.194 53.019 20.1685C52.9252 20.1008 52.8172 20.0555 52.7033 20.036L52.2812 19.944C52.0766 19.9098 51.8859 19.8178 51.7317 19.679C51.6699 19.6189 51.6212 19.5466 51.5886 19.4668C51.556 19.3869 51.5403 19.3012 51.5424 19.215C51.5403 19.0659 51.5862 18.92 51.6732 18.799C51.7675 18.6724 51.8952 18.5746 52.0419 18.5165C52.2155 18.4468 52.4014 18.4128 52.5884 18.4165C52.7659 18.4129 52.9423 18.4447 53.1074 18.51C53.2466 18.565 53.3685 18.6566 53.4601 18.775C53.547 18.8917 53.6003 19.0301 53.614 19.175H53.1039C53.0817 19.0719 53.0219 18.9808 52.9361 18.9195" fill="#00479B"/>
<path d="M55.8205 21.0335C55.6538 20.9566 55.5123 20.8341 55.4124 20.68C55.316 20.527 55.2662 20.3493 55.269 20.1685C55.2672 20.0377 55.2978 19.9086 55.3579 19.7925C55.4202 19.6768 55.5024 19.573 55.6007 19.486C55.726 19.3762 55.8585 19.2749 55.9974 19.183L56.5793 18.7795C56.6407 18.7408 56.6979 18.6959 56.7502 18.6455C56.7937 18.6023 56.8289 18.5514 56.8541 18.4955C56.8794 18.4377 56.892 18.3751 56.891 18.312C56.8903 18.2535 56.873 18.1965 56.8411 18.1475C56.8055 18.0916 56.7564 18.0457 56.6982 18.014C56.6326 17.9786 56.5591 17.9607 56.4846 17.9618C56.4101 17.9629 56.3371 17.9831 56.2726 18.0205C56.2103 18.0583 56.1587 18.1115 56.1228 18.175C56.087 18.2356 56.0682 18.3046 56.0683 18.375C56.069 18.4466 56.0861 18.517 56.1183 18.581C56.1538 18.6542 56.1965 18.7237 56.2456 18.7885C56.2966 18.8552 56.3672 18.9427 56.4574 19.051L56.5349 19.1445L58.2093 21.113H57.6099L56.2237 19.513L56.1008 19.371C55.9779 19.2277 55.8811 19.1087 55.8105 19.014C55.7405 18.9198 55.682 18.8176 55.6362 18.7095C55.5905 18.6013 55.5672 18.485 55.5678 18.3675C55.5651 18.2144 55.6047 18.0635 55.6822 17.9315C55.758 17.8031 55.8689 17.699 56.0019 17.6315C56.1503 17.5616 56.3122 17.5252 56.4762 17.5248C56.6401 17.5244 56.8022 17.5599 56.951 17.629C57.0799 17.6921 57.1888 17.7899 57.2652 17.9115C57.3376 18.0279 57.3757 18.1624 57.3751 18.2995C57.376 18.4038 57.3569 18.5074 57.3187 18.6045C57.2798 18.7003 57.2251 18.7889 57.1568 18.8665C57.0793 18.9536 56.9919 19.0315 56.8965 19.0985L56.1752 19.6225C56.0956 19.6785 56.0234 19.7443 55.9604 19.8185C55.9117 19.8754 55.8708 19.9386 55.839 20.0065C55.8161 20.0533 55.803 20.1044 55.8005 20.1565C55.7999 20.2563 55.8275 20.3542 55.88 20.439C55.9355 20.5274 56.0143 20.5987 56.1078 20.645C56.2121 20.6971 56.3274 20.7232 56.444 20.721C56.6277 20.7198 56.8074 20.6664 56.962 20.567C57.1315 20.4599 57.2703 20.3105 57.3646 20.1335C57.4694 19.9382 57.5224 19.7192 57.5185 19.4975H57.997C57.9999 19.6859 57.9751 19.8737 57.9236 20.055C57.8859 20.1919 57.8265 20.3219 57.7478 20.44C57.6806 20.535 57.6019 20.6213 57.5135 20.697L57.4535 20.7525C57.4336 20.771 57.4131 20.7895 57.3921 20.808C57.2682 20.9259 57.1203 21.0156 56.9585 21.071C56.7918 21.1308 56.6161 21.1616 56.439 21.162C56.2258 21.1669 56.0143 21.1226 55.8205 21.0335Z" fill="#00479B"/>
<path d="M61.6521 18.2185C61.5831 18.1374 61.4938 18.076 61.3934 18.0405C61.2756 17.9985 61.1512 17.978 61.0262 17.98C60.8963 17.9774 60.7671 18.0003 60.6461 18.0475C60.5472 18.0858 60.4607 18.1507 60.3963 18.235C60.3378 18.3122 60.3065 18.4066 60.3074 18.5035C60.3042 18.5724 60.3198 18.6409 60.3523 18.7017C60.3848 18.7625 60.4332 18.8134 60.4922 18.849C60.6373 18.9379 60.7959 19.0026 60.9618 19.0405L61.3115 19.1305C61.4857 19.1717 61.655 19.2321 61.816 19.3105C61.9656 19.3844 62.0954 19.4929 62.1946 19.627C62.2991 19.7723 62.3527 19.9481 62.347 20.127C62.3501 20.3186 62.2949 20.5066 62.1887 20.666C62.074 20.8303 61.9147 20.9584 61.7296 21.035C61.2746 21.2108 60.771 21.2132 60.3144 21.042C60.1291 20.9673 59.9681 20.8427 59.8493 20.682C59.7345 20.5193 59.6698 20.3266 59.663 20.1275H60.2124C60.2194 20.2422 60.2628 20.3517 60.3363 20.44C60.4125 20.5276 60.5104 20.5937 60.6201 20.6315C60.7457 20.6757 60.8781 20.6973 61.0112 20.6955C61.1512 20.6977 61.2904 20.6732 61.4214 20.6235C61.5319 20.5834 61.6297 20.5143 61.7046 20.4235C61.7713 20.338 61.8066 20.232 61.8045 20.1235C61.8074 20.0325 61.777 19.9437 61.7191 19.8735C61.6555 19.8013 61.5764 19.7446 61.4878 19.7075C61.3692 19.6569 61.2467 19.616 61.1216 19.585L60.6975 19.4725C60.4401 19.4151 60.2009 19.2949 60.0012 19.1225C59.9213 19.0473 59.8583 18.9559 59.8165 18.8544C59.7746 18.7529 59.7548 18.6437 59.7584 18.534C59.7553 18.3428 59.8144 18.1557 59.9267 18.001C60.0445 17.8423 60.2027 17.7181 60.3848 17.6415C60.5916 17.5535 60.8145 17.5099 61.0392 17.5135C61.2609 17.5097 61.4809 17.5524 61.6851 17.639C61.8626 17.7128 62.0165 17.8339 62.1302 17.989C62.2363 18.137 62.2945 18.3139 62.297 18.496H61.7675C61.7583 18.3938 61.7186 18.2968 61.6536 18.2175" fill="#00479B"/>
<path d="M64.1349 18.867H62.6572V18.4495H64.1349V18.867ZM63.5854 17.812V20.3275C63.5814 20.403 63.5965 20.4784 63.6293 20.5465C63.6542 20.5935 63.6939 20.6309 63.7422 20.653C63.7953 20.6741 63.852 20.6841 63.9091 20.6825C63.9547 20.6825 64.0426 20.679 64.1728 20.672V21.122C64.064 21.1378 63.9541 21.1453 63.8441 21.1445C63.7083 21.1463 63.5736 21.1192 63.449 21.065C63.3327 21.0141 63.2333 20.9312 63.1623 20.826C63.0874 20.7095 63.0498 20.5729 63.0544 20.4345V17.812H63.5854Z" fill="#00479B"/>
<path d="M65.9587 19.925L65.5915 19.95C65.4443 19.953 65.3005 19.9953 65.1749 20.0725C65.1269 20.1045 65.0879 20.1483 65.0617 20.1996C65.0354 20.251 65.0228 20.3083 65.0251 20.366C65.0229 20.4418 65.0459 20.5162 65.0905 20.5775C65.1369 20.6375 65.1994 20.683 65.2708 20.7085C65.3556 20.7394 65.4454 20.7545 65.5356 20.753C65.6633 20.7559 65.7898 20.7272 65.9038 20.6695C66.0028 20.6196 66.086 20.5431 66.144 20.4485C66.1984 20.359 66.2269 20.2562 66.2265 20.1515V19.311C66.2292 19.2211 66.2076 19.1321 66.164 19.0535C66.1211 18.9813 66.0561 18.9248 65.9787 18.8925C65.8826 18.8536 65.7796 18.835 65.676 18.838C65.5856 18.8363 65.4956 18.8507 65.4102 18.8805C65.3393 18.9056 65.2748 18.946 65.2214 18.999C65.173 19.0481 65.1385 19.1092 65.1215 19.176H64.5919C64.6085 19.0313 64.6669 18.8946 64.7598 18.7825C64.8622 18.6611 64.9939 18.568 65.1425 18.512C65.3192 18.4444 65.5073 18.4115 65.6964 18.415C65.8649 18.4142 66.0324 18.4406 66.1925 18.493C66.3512 18.5463 66.4904 18.6459 66.5921 18.779C66.7098 18.943 66.768 19.1424 66.757 19.344V21.1115H66.2394V20.7475H66.2185C66.1779 20.8251 66.1235 20.8948 66.0581 20.953C65.98 21.0211 65.8899 21.0741 65.7924 21.109C65.6729 21.152 65.5466 21.1728 65.4197 21.1705C65.2593 21.1729 65.1003 21.1405 64.9536 21.0755C64.82 21.0161 64.7064 20.9194 64.6264 20.797C64.544 20.6663 64.5023 20.514 64.5065 20.3595C64.4966 20.245 64.5178 20.13 64.5678 20.0266C64.6179 19.9231 64.6949 19.8352 64.7908 19.772C65.0121 19.6447 65.261 19.5733 65.5161 19.564C65.5984 19.5583 65.6948 19.5525 65.8053 19.5465L66.1176 19.531C66.181 19.5275 66.227 19.526 66.2564 19.526L66.2634 19.907C66.2001 19.909 66.0984 19.915 65.9582 19.925" fill="#00479B"/>
<path d="M67.3784 18.449H67.892V18.8735H67.9204C67.9515 18.7802 68.0026 18.6948 68.0703 18.6235C68.1376 18.5533 68.2192 18.4984 68.3096 18.4625C68.4034 18.4255 68.5035 18.4068 68.6043 18.4075C68.6801 18.4072 68.7558 18.4112 68.8311 18.4195V18.9195C68.8006 18.9125 68.7592 18.9055 68.7067 18.8985C68.657 18.8918 68.607 18.8883 68.5568 18.888C68.4417 18.8862 68.3279 18.9124 68.2251 18.9645C68.1299 19.0129 68.0502 19.087 67.9949 19.1785C67.9389 19.2718 67.9101 19.3787 67.9114 19.4875V21.1095H67.3804L67.3784 18.449Z" fill="#00479B"/>
<path d="M70.626 18.867H69.1483V18.4495H70.626V18.867ZM70.0765 17.812V20.3275C70.0725 20.403 70.0876 20.4784 70.1204 20.5465C70.1453 20.5935 70.185 20.631 70.2333 20.653C70.2864 20.6741 70.3431 20.6841 70.4002 20.6825C70.4458 20.6825 70.5337 20.679 70.6639 20.672V21.122C70.5551 21.1378 70.4452 21.1453 70.3352 21.1445C70.1994 21.1463 70.0647 21.1192 69.9401 21.065C69.8239 21.0141 69.7244 20.9312 69.6533 20.826C69.5786 20.7095 69.5409 20.5729 69.5454 20.4345V17.812H70.0765Z" fill="#00479B"/>
<path d="M72.838 18.447H73.3655V21.1085H72.8465V20.6475H72.8185C72.7768 20.7437 72.7167 20.8308 72.6417 20.904C72.5629 20.9799 72.4698 21.0394 72.3679 21.079C72.254 21.1229 72.1328 21.1447 72.0108 21.143C71.8486 21.1464 71.6884 21.1065 71.5467 21.0275C71.4105 20.9481 71.3017 20.8292 71.2345 20.6865C71.1555 20.5154 71.1172 20.3284 71.1226 20.14V18.447H71.6536V20.076C71.6512 20.1843 71.6754 20.2916 71.724 20.3885C71.7675 20.4746 71.8345 20.5466 71.9173 20.596C72.004 20.6458 72.1026 20.6711 72.2026 20.669C72.308 20.6687 72.4118 20.6427 72.5048 20.593C72.6037 20.541 72.6865 20.463 72.7446 20.3675C72.8094 20.2576 72.8416 20.1315 72.8375 20.004L72.838 18.447Z" fill="#00479B"/>
<path d="M73.9939 18.4495H74.5129V18.881H74.5569C74.5601 18.8757 74.5629 18.8702 74.5654 18.8645C74.5654 18.8595 74.5709 18.8535 74.5744 18.848C74.6189 18.7737 74.6712 18.7043 74.7302 18.641C74.7976 18.5731 74.8777 18.5192 74.966 18.4825C75.0821 18.4343 75.2071 18.4113 75.3327 18.415C75.5397 18.4117 75.7432 18.4685 75.9186 18.5785C76.0964 18.6937 76.2365 18.8585 76.3218 19.0525C76.5135 19.5223 76.5135 20.0487 76.3218 20.5185C76.2373 20.713 76.0985 20.879 75.9221 20.9965C75.7481 21.1083 75.545 21.1662 75.3382 21.163C75.2093 21.1667 75.0812 21.1425 74.9625 21.092C74.8722 21.0532 74.7904 20.9969 74.7217 20.9265C74.6612 20.8602 74.6084 20.7872 74.5644 20.709C74.5634 20.7069 74.5623 20.7049 74.5609 20.703L74.5574 20.697H74.5259V22.109H73.9944L73.9939 18.4495ZM74.5973 20.2715C74.6442 20.4023 74.7278 20.5167 74.8381 20.601C74.9485 20.6806 75.0818 20.7217 75.2178 20.718C75.3573 20.7221 75.4943 20.6796 75.6069 20.597C75.7172 20.511 75.8008 20.3953 75.8477 20.2635C75.9545 19.9528 75.9545 19.6152 75.8477 19.3045C75.8015 19.1745 75.7179 19.0611 75.6074 18.9785C75.493 18.898 75.3556 18.8566 75.2158 18.8605C75.0796 18.8565 74.9458 18.8961 74.8336 18.9735C74.7241 19.0545 74.6409 19.1659 74.5943 19.294C74.5366 19.4497 74.5088 19.615 74.5124 19.781C74.5091 19.9484 74.5373 20.115 74.5954 20.272" fill="#00479B"/>
<path d="M78.3229 18.92C78.2209 18.8538 78.1007 18.8214 77.9792 18.8275C77.8881 18.8261 77.7974 18.8417 77.712 18.8735C77.6402 18.8996 77.5763 18.9439 77.5266 19.002C77.483 19.0528 77.4595 19.118 77.4607 19.185C77.4602 19.2244 77.4689 19.2634 77.4863 19.2987C77.5037 19.3341 77.5291 19.3649 77.5606 19.3885C77.6562 19.4566 77.7658 19.5026 77.8813 19.523L78.3139 19.62C78.519 19.6559 78.7104 19.7468 78.8679 19.883C78.9286 19.9424 78.9762 20.0138 79.0077 20.0927C79.0392 20.1715 79.0538 20.2561 79.0508 20.341C79.0531 20.4939 79.0066 20.6435 78.9179 20.768C78.8203 20.8994 78.6877 21.0006 78.5352 21.06C78.3478 21.1345 78.1474 21.1706 77.9458 21.166C77.7564 21.1699 77.568 21.1391 77.3898 21.075C77.2436 21.0224 77.1148 20.9303 77.0176 20.809C76.9237 20.6854 76.8651 20.5387 76.8478 20.3845H77.3913C77.399 20.4394 77.4183 20.492 77.4478 20.5389C77.4773 20.5858 77.5165 20.6259 77.5626 20.6565C77.6772 20.7224 77.8083 20.7537 77.9403 20.7465C78.042 20.7483 78.1433 20.7331 78.24 20.7015C78.316 20.6777 78.384 20.6336 78.4368 20.574C78.4822 20.5206 78.5067 20.4526 78.5058 20.3825C78.5067 20.3415 78.4982 20.3009 78.4808 20.2638C78.4635 20.2267 78.4378 20.1941 78.4058 20.1685C78.3121 20.1008 78.2041 20.0555 78.0901 20.036L77.668 19.944C77.4634 19.9098 77.2728 19.8178 77.1185 19.679C77.0567 19.6189 77.008 19.5466 76.9754 19.4668C76.9429 19.3869 76.9271 19.3012 76.9292 19.215C76.927 19.0658 76.9729 18.92 77.0601 18.799C77.1544 18.6724 77.282 18.5746 77.4287 18.5165C77.6025 18.4467 77.7886 18.4127 77.9757 18.4165C78.1532 18.4129 78.3297 18.4447 78.4948 18.51C78.6339 18.5651 78.7557 18.6566 78.8474 18.775C78.9343 18.8917 78.9875 19.0301 79.0013 19.175H78.4913C78.4691 19.0719 78.4092 18.9808 78.3234 18.9195" fill="#00479B"/>
<path d="M81.3662 21.111H80.8192V17.561H81.3662V21.111ZM81.097 21.111V20.6395H81.9587C82.194 20.648 82.4277 20.5964 82.6375 20.4895C82.8176 20.3899 82.9605 20.2344 83.0447 20.0465C83.2236 19.5892 83.2236 19.0812 83.0447 18.624C82.9621 18.4385 82.822 18.2845 82.645 18.185C82.4436 18.0784 82.2179 18.0261 81.9901 18.033H81.0775V17.5615H82.0236C82.3397 17.553 82.6528 17.6258 82.9328 17.773C83.1852 17.9119 83.3891 18.125 83.5167 18.3835C83.6507 18.6823 83.7199 19.006 83.7199 19.3335C83.7199 19.661 83.6507 19.9847 83.5167 20.2835C83.3866 20.5442 83.1792 20.7583 82.9228 20.8965C82.6348 21.0455 82.3137 21.119 81.9896 21.11L81.097 21.111Z" fill="#00479B"/>
<path d="M84.2691 17.998C84.2194 17.9707 84.177 17.9318 84.1457 17.8845C84.1153 17.8389 84.0991 17.7853 84.0992 17.7305C84.0989 17.6747 84.1151 17.6201 84.1457 17.5735C84.1765 17.526 84.219 17.4873 84.2691 17.461C84.3203 17.4342 84.3772 17.4203 84.4349 17.4203C84.4927 17.4203 84.5496 17.4342 84.6008 17.461C84.6509 17.4868 84.6932 17.5257 84.7232 17.5735C84.7529 17.6205 84.7685 17.6749 84.7681 17.7305C84.7682 17.7851 84.7526 17.8386 84.7232 17.8845C84.6928 17.9322 84.6506 17.9713 84.6008 17.998C84.5499 18.0258 84.4929 18.0403 84.4349 18.0403C84.377 18.0403 84.32 18.0258 84.2691 17.998ZM84.1662 18.448H84.6972V21.1095H84.1662V18.448Z" fill="#00479B"/>
<path d="M86.5649 18.92C86.4629 18.8538 86.3426 18.8214 86.2212 18.8275C86.13 18.8261 86.0394 18.8417 85.9539 18.8735C85.8821 18.8995 85.8182 18.9438 85.7686 19.002C85.7248 19.0528 85.7011 19.1179 85.7022 19.185C85.7016 19.2244 85.7104 19.2634 85.7277 19.2987C85.7451 19.3341 85.7706 19.3649 85.8021 19.3885C85.8978 19.4566 86.0076 19.5026 86.1233 19.523L86.5559 19.62C86.7609 19.656 86.9523 19.7468 87.1099 19.883C87.1705 19.9424 87.2182 20.0138 87.2496 20.0927C87.2811 20.1715 87.2958 20.2561 87.2927 20.341C87.2951 20.4939 87.2485 20.6435 87.1598 20.768C87.0622 20.8994 86.9296 21.0006 86.7772 21.06C86.5898 21.1345 86.3893 21.1706 86.1877 21.166C85.9984 21.1699 85.8099 21.1391 85.6317 21.075C85.4855 21.0224 85.3568 20.9303 85.2596 20.809C85.1657 20.6855 85.107 20.5388 85.0897 20.3845H85.6332C85.641 20.4394 85.6603 20.4921 85.6899 20.539C85.7196 20.5859 85.7588 20.6259 85.8051 20.6565C85.9194 20.7224 86.0504 20.7537 86.1822 20.7465C86.2839 20.7483 86.3852 20.7331 86.4819 20.7015C86.5579 20.6777 86.626 20.6336 86.6788 20.574C86.7241 20.5206 86.7486 20.4526 86.7477 20.3825C86.7486 20.3415 86.74 20.3009 86.7227 20.2638C86.7054 20.2267 86.6798 20.1941 86.6478 20.1685C86.554 20.1008 86.446 20.0555 86.3321 20.036L85.91 19.944C85.7054 19.9098 85.5147 19.8178 85.3605 19.679C85.2987 19.6189 85.2499 19.5467 85.2173 19.4668C85.1848 19.387 85.169 19.3012 85.1711 19.215C85.1689 19.0658 85.2148 18.92 85.302 18.799C85.3963 18.6724 85.524 18.5746 85.6707 18.5165C85.8445 18.4467 86.0305 18.4127 86.2177 18.4165C86.3952 18.4129 86.5716 18.4447 86.7367 18.51C86.8759 18.5651 86.9977 18.6566 87.0894 18.775C87.1762 18.8918 87.2294 19.0301 87.2432 19.175H86.7332C86.711 19.0719 86.6511 18.9808 86.5654 18.9195" fill="#00479B"/>
<path d="M88.9521 18.867H87.4745V18.4495H88.9521V18.867ZM88.4026 17.812V20.3275C88.3985 20.403 88.4137 20.4784 88.4466 20.5465C88.4713 20.5935 88.5108 20.6309 88.559 20.653C88.6122 20.6741 88.6691 20.6841 88.7263 20.6825C88.772 20.6825 88.8599 20.679 88.9901 20.672V21.122C88.8813 21.1378 88.7714 21.1453 88.6614 21.1445C88.5256 21.1463 88.3909 21.1192 88.2663 21.065C88.15 21.0141 88.0506 20.9312 87.9795 20.826C87.9047 20.7095 87.867 20.5729 87.8716 20.4345V17.812H88.4026Z" fill="#00479B"/>
<path d="M89.3439 18.449H89.8574V18.8735H89.8859C89.9173 18.7811 89.9685 18.6967 90.0358 18.6261C90.103 18.5555 90.1848 18.5004 90.2755 18.4645C90.3692 18.4275 90.4691 18.4088 90.5697 18.4095C90.6455 18.4092 90.7212 18.4132 90.7965 18.4215V18.9215C90.7661 18.9145 90.7246 18.9075 90.6722 18.9005C90.6225 18.8938 90.5724 18.8903 90.5223 18.89C90.4072 18.8882 90.2933 18.9144 90.1906 18.9665C90.0953 19.0148 90.0155 19.0889 89.9603 19.1805C89.9041 19.2737 89.875 19.3807 89.8764 19.4895V21.1115H89.3454L89.3439 18.449Z" fill="#00479B"/>
<path d="M91.1657 17.998C91.1161 17.9708 91.0739 17.9318 91.0428 17.8845C91.0121 17.839 90.9958 17.7854 90.9959 17.7305C90.9956 17.6747 91.0119 17.62 91.0428 17.5735C91.0734 17.5261 91.1158 17.4873 91.1657 17.461C91.2169 17.4342 91.2738 17.4203 91.3315 17.4203C91.3893 17.4203 91.4462 17.4342 91.4974 17.461C91.5476 17.4868 91.5899 17.5256 91.6198 17.5735C91.6495 17.6205 91.6651 17.6749 91.6647 17.7305C91.6649 17.7851 91.6493 17.8386 91.6198 17.8845C91.5894 17.9323 91.5473 17.9714 91.4974 17.998C91.4465 18.0258 91.3895 18.0403 91.3315 18.0403C91.2736 18.0403 91.2166 18.0258 91.1657 17.998ZM91.0628 18.448H91.5938V21.1095H91.0658L91.0628 18.448Z" fill="#00479B"/>
<path d="M92.1582 17.5625H92.6892V18.883H92.7177C92.7211 18.8761 92.7249 18.8694 92.7292 18.863C92.7332 18.8565 92.7367 18.85 92.7407 18.843C92.7853 18.7688 92.8377 18.6996 92.897 18.6365C92.9646 18.5703 93.0446 18.5179 93.1323 18.4825C93.2475 18.4356 93.3712 18.4131 93.4955 18.4165C93.7023 18.4133 93.9056 18.4701 94.0809 18.58C94.2588 18.6954 94.3994 18.8601 94.4856 19.054C94.5878 19.2845 94.6376 19.5349 94.6314 19.787C94.6372 20.039 94.5876 20.2893 94.4861 20.52C94.4012 20.7143 94.2625 20.8801 94.0864 20.998C93.9124 21.1099 93.7093 21.1678 93.5025 21.1645C93.3754 21.1681 93.249 21.1444 93.1318 21.095C93.0423 21.0569 92.9609 21.0019 92.892 20.933C92.8312 20.8687 92.7781 20.7976 92.7337 20.721C92.7317 20.7172 92.7296 20.7135 92.7272 20.71C92.7247 20.7062 92.722 20.7025 92.7192 20.699H92.6787V21.113H92.1602L92.1582 17.5625ZM92.7577 20.2715C92.8048 20.4024 92.8887 20.5169 92.9994 20.601C93.1128 20.6778 93.2467 20.7185 93.3835 20.7177C93.5204 20.7169 93.6538 20.6746 93.7662 20.5965C93.8771 20.5108 93.961 20.3951 94.008 20.263C94.0641 20.1084 94.0915 19.9449 94.0889 19.7805C94.0918 19.6181 94.0648 19.4566 94.0095 19.304C93.9634 19.1741 93.88 19.0607 93.7697 18.978C93.6553 18.902 93.5212 18.8611 93.3838 18.8602C93.2465 18.8593 93.1119 18.8985 92.9964 18.973C92.8865 19.0538 92.8029 19.1653 92.7562 19.2935C92.6985 19.4493 92.6708 19.6145 92.6742 19.7805C92.6711 19.9479 92.6992 20.1144 92.7572 20.2715" fill="#00479B"/>
<path d="M96.7467 18.447H97.2747V21.1085H96.7557V20.6475H96.7277C96.6859 20.7436 96.6258 20.8307 96.5508 20.904C96.472 20.9799 96.379 21.0394 96.2771 21.079C96.1632 21.1229 96.042 21.1447 95.9199 21.143C95.7577 21.1463 95.5976 21.1065 95.4558 21.0275C95.3197 20.9481 95.2108 20.8292 95.1436 20.6865C95.0647 20.5154 95.0264 20.3284 95.0317 20.14V18.447H95.5607V20.076C95.5583 20.1844 95.5825 20.2917 95.6312 20.3885C95.6747 20.4746 95.7417 20.5466 95.8245 20.596C95.9112 20.6458 96.0098 20.6711 96.1097 20.669C96.2153 20.6688 96.3193 20.6427 96.4125 20.593C96.5112 20.5409 96.5939 20.463 96.6517 20.3675C96.7164 20.2576 96.7486 20.1315 96.7447 20.004L96.7467 18.447Z" fill="#00479B"/>
<path d="M99.0575 18.867H97.5798V18.4495H99.0575V18.867ZM98.508 17.812V20.3275C98.5039 20.403 98.519 20.4784 98.5519 20.5465C98.5766 20.5935 98.6161 20.6309 98.6643 20.653C98.7175 20.6741 98.7745 20.6841 98.8317 20.6825C98.8773 20.6825 98.9652 20.679 99.0954 20.672V21.122C98.9866 21.1378 98.8767 21.1453 98.7668 21.1445C98.6309 21.1463 98.4962 21.1192 98.3716 21.065C98.2553 21.0141 98.1559 20.9312 98.0849 20.826C98.0098 20.7096 97.972 20.573 97.9765 20.4345V17.812H98.508Z" fill="#00479B"/>
<path d="M99.5515 17.998C99.502 17.9707 99.4598 17.9317 99.4287 17.8845C99.3983 17.8389 99.3821 17.7853 99.3822 17.7305C99.3819 17.6747 99.3981 17.6201 99.4287 17.5735C99.4594 17.5261 99.5017 17.4874 99.5515 17.461C99.6028 17.4343 99.6596 17.4203 99.7174 17.4203C99.7751 17.4203 99.832 17.4343 99.8832 17.461C99.9334 17.4868 99.9757 17.5257 100.006 17.5735C100.035 17.6205 100.051 17.6749 100.051 17.7305C100.051 17.7851 100.035 17.8386 100.006 17.8845C99.9752 17.9322 99.9331 17.9713 99.8832 17.998C99.8323 18.0257 99.7753 18.0402 99.7174 18.0402C99.6595 18.0402 99.6024 18.0257 99.5515 17.998ZM99.4486 18.448H99.9787V21.1095H99.4491L99.4486 18.448Z" fill="#00479B"/>
<path d="M100.978 20.993C100.787 20.8785 100.633 20.7109 100.535 20.5105C100.432 20.2844 100.378 20.0388 100.378 19.7902C100.378 19.5417 100.432 19.2961 100.535 19.07C100.632 18.8691 100.787 18.7011 100.978 18.5865C101.181 18.4738 101.409 18.4147 101.641 18.4147C101.873 18.4147 102.101 18.4738 102.304 18.5865C102.495 18.7015 102.648 18.8695 102.745 19.07C102.848 19.2962 102.901 19.5418 102.901 19.7902C102.901 20.0387 102.848 20.2842 102.745 20.5105C102.648 20.7107 102.495 20.8783 102.304 20.993C102.101 21.1055 101.873 21.1646 101.641 21.1646C101.409 21.1646 101.181 21.1055 100.978 20.993ZM102.042 20.603C102.153 20.5156 102.238 20.3985 102.285 20.265C102.393 19.9575 102.393 19.6225 102.285 19.315C102.237 19.1813 102.153 19.0638 102.042 18.9755C101.927 18.8889 101.786 18.8443 101.642 18.849C101.499 18.8447 101.358 18.8889 101.242 18.9745C101.131 19.0627 101.046 19.1803 100.997 19.314C100.887 19.6211 100.887 19.9569 100.997 20.264C101.046 20.3974 101.131 20.5144 101.242 20.602C101.36 20.683 101.499 20.7263 101.642 20.7263C101.785 20.7263 101.924 20.683 102.042 20.602" fill="#00479B"/>
<path d="M103.831 21.111H103.3V18.449H103.812V18.884H103.845C103.887 18.7902 103.947 18.7053 104.02 18.634C104.097 18.5615 104.187 18.506 104.287 18.471C104.401 18.4311 104.521 18.4116 104.642 18.4135C104.811 18.4096 104.978 18.449 105.127 18.528C105.267 18.6055 105.379 18.7244 105.449 18.8685C105.529 19.0404 105.568 19.2288 105.562 19.4185V21.1115H105.031V19.482C105.034 19.3682 105.011 19.2554 104.963 19.152C104.921 19.0625 104.853 18.9883 104.767 18.9395C104.673 18.889 104.568 18.8638 104.462 18.8665C104.348 18.8641 104.236 18.8913 104.136 18.9455C104.042 18.9986 103.965 19.0779 103.915 19.174C103.858 19.2847 103.83 19.4078 103.834 19.532L103.831 21.111Z" fill="#00479B"/>
<path d="M107.625 21.0335C107.458 20.9563 107.317 20.8336 107.218 20.6795C107.121 20.5265 107.071 20.3488 107.074 20.168C107.072 20.0372 107.103 19.9081 107.163 19.792C107.225 19.6763 107.308 19.5725 107.406 19.4855C107.531 19.3757 107.664 19.2744 107.803 19.1825L108.384 18.7795C108.445 18.7408 108.502 18.6959 108.554 18.6455C108.597 18.6024 108.633 18.5515 108.658 18.4955C108.683 18.4377 108.696 18.3751 108.695 18.312C108.694 18.2535 108.677 18.1964 108.645 18.1475C108.609 18.0917 108.56 18.0457 108.502 18.014C108.437 17.9786 108.363 17.9607 108.289 17.9618C108.214 17.9629 108.141 17.9831 108.077 18.0205C108.014 18.0583 107.963 18.1115 107.927 18.175C107.891 18.2355 107.872 18.3046 107.872 18.375C107.873 18.4466 107.89 18.517 107.922 18.581C107.957 18.6542 108 18.7237 108.049 18.7885C108.1 18.8552 108.171 18.9427 108.261 19.051L108.339 19.1445L110.013 21.113H109.414L108.027 19.513L107.904 19.371C107.781 19.2277 107.684 19.1087 107.614 19.014C107.544 18.9198 107.485 18.8176 107.439 18.7095C107.394 18.6013 107.37 18.485 107.371 18.3675C107.368 18.2144 107.408 18.0635 107.485 17.9315C107.561 17.8031 107.672 17.699 107.805 17.6315C107.953 17.5616 108.115 17.5252 108.279 17.5248C108.443 17.5244 108.605 17.5599 108.754 17.629C108.883 17.692 108.992 17.7898 109.068 17.9115C109.141 18.0278 109.179 18.1624 109.178 18.2995C109.179 18.4038 109.16 18.5074 109.122 18.6045C109.083 18.7003 109.029 18.7889 108.96 18.8665C108.883 18.9536 108.796 19.0315 108.7 19.0985L107.977 19.623C107.897 19.679 107.825 19.7449 107.763 19.819C107.714 19.8759 107.673 19.9391 107.641 20.007C107.618 20.0538 107.605 20.1048 107.602 20.157C107.602 20.2568 107.629 20.3548 107.682 20.4395C107.738 20.5279 107.816 20.5992 107.91 20.6455C108.014 20.6976 108.13 20.7236 108.246 20.7215C108.43 20.7202 108.609 20.6668 108.764 20.5675C108.933 20.4605 109.072 20.3111 109.167 20.134C109.272 19.9387 109.325 19.7197 109.321 19.498H109.799C109.803 19.6868 109.778 19.8752 109.727 20.057C109.69 20.1939 109.63 20.3239 109.551 20.442C109.484 20.537 109.406 20.6233 109.318 20.699L109.258 20.7545C109.238 20.773 109.217 20.7915 109.196 20.81C109.072 20.9279 108.924 21.0176 108.763 21.073C108.596 21.1329 108.42 21.1637 108.243 21.164C108.03 21.1688 107.818 21.125 107.625 21.036" fill="#00479B"/>
<path d="M112.06 17.562L113.204 20.312H113.246L114.387 17.562H115.054V21.112H114.532V18.5495H114.498L113.439 21.1055H113.006L111.947 18.5445H111.917V21.1105H111.393V17.5605L112.06 17.562Z" fill="#00479B"/>
<path d="M116.941 19.925L116.574 19.95C116.427 19.953 116.283 19.9953 116.157 20.0725C116.109 20.1045 116.07 20.1483 116.044 20.1996C116.018 20.251 116.005 20.3083 116.007 20.366C116.005 20.4418 116.028 20.5162 116.073 20.5775C116.119 20.6375 116.182 20.683 116.253 20.7085C116.338 20.7394 116.428 20.7545 116.518 20.753C116.646 20.7559 116.772 20.7272 116.886 20.6695C116.985 20.6196 117.068 20.5431 117.126 20.4485C117.181 20.359 117.21 20.2563 117.209 20.1515V19.311C117.212 19.2211 117.191 19.1321 117.147 19.0535C117.104 18.9814 117.039 18.9249 116.962 18.8925C116.866 18.8536 116.762 18.835 116.659 18.838C116.568 18.8362 116.478 18.8506 116.393 18.8805C116.322 18.9055 116.258 18.9459 116.204 18.999C116.156 19.0481 116.122 19.1092 116.104 19.176H115.575C115.591 19.0313 115.65 18.8946 115.743 18.7825C115.845 18.6611 115.977 18.568 116.125 18.512C116.302 18.4444 116.49 18.4115 116.679 18.415C116.848 18.4142 117.015 18.4406 117.175 18.493C117.334 18.5465 117.473 18.646 117.575 18.779C117.692 18.9431 117.75 19.1424 117.739 19.344V21.1115H117.222V20.7475H117.201C117.161 20.8252 117.106 20.8948 117.041 20.953C116.963 21.0211 116.873 21.074 116.775 21.109C116.656 21.152 116.53 21.1728 116.403 21.1705C116.242 21.1729 116.083 21.1405 115.937 21.0755C115.803 21.016 115.689 20.9193 115.609 20.797C115.527 20.6662 115.486 20.5139 115.49 20.3595C115.48 20.245 115.501 20.13 115.551 20.0265C115.601 19.9231 115.678 19.8351 115.774 19.772C115.996 19.6447 116.245 19.5733 116.5 19.564C116.582 19.5583 116.678 19.5525 116.789 19.5465L117.101 19.531C117.165 19.5275 117.211 19.526 117.24 19.526L117.247 19.907C117.184 19.909 117.082 19.915 116.942 19.925" fill="#00479B"/>
<path d="M118.253 18.449H118.767V18.8735H118.795C118.827 18.7812 118.878 18.6968 118.945 18.6262C119.013 18.5555 119.094 18.5004 119.185 18.4645C119.279 18.4275 119.379 18.4089 119.479 18.4095C119.555 18.4092 119.631 18.4132 119.706 18.4215V18.9215C119.676 18.9145 119.634 18.9075 119.581 18.9005C119.532 18.8938 119.481 18.8903 119.431 18.89C119.316 18.8882 119.202 18.9145 119.1 18.9665C119.004 19.0148 118.925 19.089 118.869 19.1805C118.813 19.2737 118.784 19.3807 118.786 19.4895V21.1115H118.255L118.253 18.449Z" fill="#00479B"/>
<path d="M119.975 17.5625H120.506V21.1125H119.975V17.5625ZM120.461 19.574H120.552L121.623 18.4495H122.258L121.032 19.733H120.948L120.465 20.21L120.461 19.574ZM120.717 19.8495L121.083 19.482L122.332 21.111H121.682L120.717 19.8495Z" fill="#00479B"/>
<path d="M122.918 20.996C122.725 20.8845 122.569 20.7184 122.471 20.5185C122.363 20.2938 122.31 20.0468 122.315 19.7975C122.311 19.5486 122.364 19.3021 122.471 19.0775C122.568 18.876 122.72 18.7064 122.91 18.589C123.107 18.4706 123.334 18.4102 123.564 18.415C123.772 18.4126 123.978 18.4604 124.164 18.5545C124.35 18.6532 124.503 18.8065 124.601 18.994C124.719 19.2288 124.776 19.4897 124.766 19.7525V19.939H122.61V19.547H124.241C124.243 19.4213 124.214 19.297 124.158 19.185C124.104 19.0807 124.022 18.9939 123.921 18.935C123.814 18.8741 123.694 18.843 123.571 18.845C123.437 18.8426 123.305 18.8787 123.191 18.949C123.083 19.0163 122.995 19.1114 122.936 19.2245C122.875 19.3393 122.843 19.4672 122.843 19.597V19.9C122.839 20.0554 122.871 20.2097 122.938 20.35C122.997 20.4699 123.09 20.5698 123.205 20.637C123.327 20.7053 123.465 20.7398 123.605 20.737C123.694 20.7382 123.782 20.7253 123.866 20.699C123.939 20.677 124.007 20.6417 124.066 20.595C124.118 20.5538 124.161 20.5028 124.193 20.445H124.731C124.692 20.5874 124.619 20.7181 124.518 20.8255C124.41 20.9387 124.277 21.0253 124.13 21.0785C123.961 21.1398 123.783 21.17 123.604 21.1675C123.364 21.1732 123.128 21.1149 122.919 20.9985" fill="#00479B"/>
<path d="M126.427 18.867H124.949V18.4495H126.427V18.867ZM125.877 17.812V20.3275C125.873 20.403 125.888 20.4784 125.921 20.5465C125.946 20.5935 125.986 20.6309 126.034 20.653C126.087 20.674 126.144 20.6841 126.201 20.6825C126.247 20.6825 126.335 20.679 126.464 20.672V21.122C126.356 21.1378 126.246 21.1453 126.136 21.1445C126 21.1463 125.865 21.1192 125.741 21.065C125.624 21.0141 125.525 20.9312 125.454 20.826C125.379 20.7096 125.341 20.573 125.345 20.4345V17.812H125.877Z" fill="#00479B"/>
<path d="M126.922 17.998C126.872 17.9708 126.83 17.9318 126.799 17.8845C126.768 17.839 126.752 17.7854 126.752 17.7305C126.751 17.6747 126.768 17.62 126.799 17.5735C126.829 17.5261 126.872 17.4873 126.922 17.461C126.973 17.4342 127.03 17.4203 127.087 17.4203C127.145 17.4203 127.202 17.4342 127.253 17.461C127.303 17.4868 127.346 17.5256 127.376 17.5735C127.405 17.6205 127.421 17.6749 127.421 17.7305C127.421 17.7851 127.405 17.8386 127.376 17.8845C127.345 17.9323 127.303 17.9714 127.253 17.998C127.202 18.0258 127.145 18.0404 127.087 18.0404C127.029 18.0404 126.972 18.0258 126.922 17.998ZM126.819 18.448H127.35V21.1095H126.819V18.448Z" fill="#00479B"/>
<path d="M128.401 21.111H127.87V18.449H128.38V18.884H128.413C128.455 18.7902 128.515 18.7053 128.588 18.634C128.665 18.5616 128.756 18.5061 128.855 18.471C128.969 18.4311 129.089 18.4116 129.21 18.4135C129.379 18.4096 129.547 18.449 129.696 18.528C129.836 18.6055 129.948 18.7245 130.017 18.8685C130.098 19.0404 130.136 19.2288 130.131 19.4185V21.1115H129.6V19.482C129.602 19.3682 129.579 19.2554 129.532 19.152C129.49 19.0625 129.421 18.9883 129.335 18.9395C129.241 18.889 129.136 18.8638 129.03 18.8665C128.916 18.8641 128.804 18.8913 128.704 18.9455C128.61 18.9986 128.533 19.0779 128.483 19.174C128.426 19.2847 128.398 19.4078 128.402 19.532L128.401 21.111Z" fill="#00479B"/>
<path d="M131.184 22.0705C131.026 22.0169 130.885 21.9222 130.776 21.796C130.675 21.6754 130.614 21.5266 130.602 21.37H131.144C131.158 21.449 131.196 21.5217 131.253 21.5785C131.314 21.6378 131.39 21.6809 131.472 21.704C131.575 21.7336 131.681 21.7477 131.787 21.746C131.968 21.757 132.147 21.7053 132.294 21.5995C132.357 21.5436 132.406 21.4739 132.438 21.3958C132.469 21.3178 132.482 21.2334 132.476 21.1495V20.626H132.44L132.433 20.638C132.39 20.7128 132.338 20.7823 132.279 20.845C132.21 20.9131 132.128 20.9668 132.037 21.003C131.917 21.0517 131.787 21.075 131.657 21.0715C131.453 21.0747 131.252 21.021 131.077 20.9165C130.902 20.8086 130.762 20.6523 130.674 20.4665C130.569 20.2444 130.518 20.0009 130.524 19.7555C130.518 19.5083 130.568 19.2629 130.671 19.038C130.758 18.8482 130.898 18.6879 131.075 18.5765C131.251 18.4696 131.454 18.4147 131.66 18.418C131.785 18.4146 131.91 18.4376 132.026 18.4855C132.115 18.5217 132.195 18.575 132.263 18.6425C132.322 18.7056 132.375 18.7743 132.422 18.8475C132.429 18.859 132.436 18.8715 132.443 18.884H132.478V18.4525H132.997V21.1715C133.004 21.3686 132.949 21.5632 132.841 21.728C132.734 21.8795 132.584 21.9952 132.41 22.06C132.209 22.1353 131.995 22.1719 131.78 22.168C131.576 22.172 131.373 22.14 131.18 22.0735M132.155 20.5375C132.263 20.4634 132.346 20.359 132.395 20.2375C132.454 20.0881 132.482 19.9284 132.478 19.768C132.481 19.6063 132.453 19.4455 132.397 19.294C132.349 19.1672 132.266 19.0572 132.156 18.9775C132.044 18.9008 131.91 18.8614 131.774 18.865C131.635 18.8608 131.498 18.9019 131.385 18.982C131.275 19.0635 131.192 19.175 131.144 19.303C131.088 19.4513 131.06 19.6089 131.063 19.7675C131.059 19.9248 131.088 20.0813 131.146 20.2275C131.195 20.3509 131.278 20.4574 131.387 20.534C131.501 20.61 131.636 20.6485 131.774 20.644C131.908 20.648 132.041 20.6112 132.154 20.5385" fill="#00479B"/>
<path d="M134.406 21.111L135.7 17.561H136.335L137.63 21.111H137.047L136.031 18.211H136.003L134.986 21.111H134.406ZM136.953 20.1735H135.08V19.7235H136.953V20.1735Z" fill="#00479B"/>
<path d="M138.411 22.0705C138.253 22.0169 138.112 21.9222 138.003 21.796C137.902 21.6754 137.842 21.5266 137.829 21.37H138.37C138.384 21.449 138.422 21.5218 138.479 21.5785C138.541 21.6378 138.616 21.681 138.699 21.704C138.801 21.7336 138.907 21.7477 139.013 21.746C139.194 21.7569 139.373 21.7052 139.52 21.5995C139.583 21.5436 139.632 21.4739 139.663 21.3958C139.695 21.3178 139.708 21.2334 139.701 21.1495V20.626H139.668L139.661 20.638C139.618 20.7128 139.567 20.7823 139.507 20.845C139.438 20.9131 139.356 20.9667 139.266 21.003C139.145 21.0517 139.016 21.075 138.886 21.0715C138.682 21.0746 138.481 21.021 138.306 20.9165C138.131 20.8086 137.991 20.6523 137.902 20.4665C137.798 20.2444 137.747 20.0009 137.753 19.7555C137.747 19.5083 137.797 19.2629 137.899 19.038C137.987 18.8481 138.127 18.6878 138.304 18.5765C138.48 18.4696 138.683 18.4146 138.889 18.418C139.015 18.4146 139.14 18.4376 139.256 18.4855C139.344 18.5217 139.425 18.575 139.492 18.6425C139.552 18.7056 139.604 18.7743 139.65 18.8475C139.658 18.859 139.665 18.8715 139.672 18.884H139.707V18.4525H140.226V21.1715C140.233 21.3687 140.178 21.5632 140.07 21.728C139.963 21.8794 139.813 21.9951 139.639 22.06C139.438 22.1353 139.224 22.1719 139.008 22.168C138.805 22.172 138.602 22.14 138.409 22.0735M139.384 20.5375C139.491 20.4634 139.575 20.359 139.624 20.2375C139.682 20.0881 139.71 19.9284 139.706 19.768C139.71 19.6063 139.682 19.4455 139.626 19.294C139.578 19.1672 139.495 19.0572 139.386 18.9775C139.273 18.9008 139.139 18.8614 139.003 18.865C138.864 18.8608 138.728 18.9018 138.614 18.982C138.505 19.0635 138.421 19.175 138.373 19.303C138.317 19.4514 138.29 19.609 138.293 19.7675C138.289 19.9248 138.317 20.0812 138.375 20.2275C138.424 20.3508 138.508 20.4573 138.616 20.534C138.73 20.61 138.866 20.6485 139.003 20.644C139.138 20.648 139.27 20.6112 139.384 20.5385" fill="#00479B"/>
<path d="M141.228 20.996C141.035 20.8845 140.88 20.7184 140.781 20.5185C140.673 20.2938 140.62 20.0467 140.626 19.7975C140.621 19.5487 140.674 19.3021 140.781 19.0775C140.878 18.876 141.03 18.7064 141.22 18.589C141.417 18.4706 141.644 18.4102 141.874 18.415C142.082 18.4126 142.288 18.4604 142.474 18.5545C142.661 18.6531 142.813 18.8064 142.911 18.994C143.029 19.2287 143.086 19.4897 143.076 19.7525V19.939H140.923V19.547H142.554C142.556 19.4213 142.527 19.297 142.47 19.185C142.417 19.0807 142.335 18.994 142.233 18.935C142.127 18.8741 142.006 18.843 141.884 18.845C141.75 18.8425 141.618 18.8786 141.504 18.949C141.395 19.0163 141.307 19.1114 141.248 19.2245C141.187 19.3393 141.156 19.4672 141.155 19.597V19.9C141.151 20.0554 141.183 20.2097 141.25 20.35C141.309 20.4699 141.402 20.5698 141.518 20.637C141.64 20.7052 141.778 20.7397 141.917 20.737C142.006 20.7382 142.094 20.7253 142.179 20.699C142.251 20.677 142.319 20.6417 142.378 20.595C142.43 20.5538 142.473 20.5028 142.505 20.445H143.043C143.005 20.5874 142.932 20.7181 142.83 20.8255C142.722 20.9387 142.589 21.0253 142.442 21.0785C142.273 21.1398 142.095 21.17 141.916 21.1675C141.677 21.1732 141.44 21.1149 141.231 20.9985" fill="#00479B"/>
<path d="M144.006 21.111H143.475V18.449H143.985V18.884H144.018C144.06 18.7902 144.12 18.7053 144.194 18.634C144.27 18.5615 144.361 18.506 144.46 18.471C144.574 18.4311 144.695 18.4116 144.816 18.4135C144.985 18.4096 145.152 18.449 145.301 18.528C145.441 18.6055 145.553 18.7245 145.622 18.8685C145.702 19.0404 145.741 19.2288 145.735 19.4185V21.1115H145.205V19.482C145.208 19.3682 145.184 19.2554 145.137 19.152C145.095 19.0625 145.027 18.9882 144.941 18.9395C144.847 18.8889 144.741 18.8638 144.635 18.8665C144.521 18.8641 144.409 18.8913 144.309 18.9455C144.215 18.9986 144.138 19.0779 144.087 19.174C144.031 19.2847 144.003 19.4078 144.007 19.532L144.006 21.111Z" fill="#00479B"/>
<path d="M146.722 20.989C146.532 20.873 146.379 20.7041 146.283 20.503C146.182 20.2785 146.13 20.0349 146.13 19.7885C146.13 19.5421 146.184 19.2986 146.286 19.0745C146.383 18.8732 146.536 18.7042 146.726 18.5875C146.926 18.4687 147.155 18.4084 147.388 18.4135C147.577 18.4106 147.764 18.4484 147.937 18.5245C148.094 18.5929 148.229 18.7018 148.329 18.84C148.429 18.9779 148.489 19.1401 148.504 19.3095H147.988C147.97 19.2252 147.934 19.1457 147.883 19.0765C147.831 19.006 147.762 18.9495 147.683 18.912C147.594 18.8706 147.496 18.85 147.397 18.852C147.261 18.8493 147.127 18.8889 147.014 18.9655C146.9 19.047 146.811 19.1591 146.758 19.289C146.694 19.4444 146.663 19.6114 146.667 19.7795C146.663 19.9505 146.694 20.1206 146.757 20.2795C146.809 20.4108 146.897 20.5245 147.012 20.607C147.125 20.6848 147.26 20.725 147.397 20.722C147.491 20.7234 147.585 20.7049 147.671 20.6675C147.751 20.6326 147.82 20.5791 147.875 20.5115C147.931 20.4401 147.971 20.3569 147.99 20.268H148.506C148.49 20.4358 148.43 20.5965 148.333 20.7339C148.235 20.8712 148.103 20.9805 147.95 21.0505C147.755 21.1355 147.543 21.1743 147.331 21.1641C147.118 21.1539 146.911 21.0948 146.725 20.9915" fill="#00479B"/>
<path d="M148.921 22.0965L148.924 21.658C148.938 21.658 148.952 21.658 148.967 21.658C148.981 21.658 148.997 21.658 149.013 21.658C149.059 21.658 149.108 21.6615 149.163 21.6615C149.22 21.6628 149.278 21.6568 149.333 21.6435C149.386 21.6261 149.432 21.5931 149.466 21.549C149.52 21.4784 149.562 21.3994 149.59 21.315L149.657 21.1415L148.667 18.4415H149.235L149.916 20.5055H149.944L150.628 18.4415H151.196L150.083 21.4565C150.022 21.6462 149.906 21.8138 149.751 21.939C149.592 22.0517 149.401 22.1087 149.207 22.101C149.085 22.101 148.99 22.0975 148.922 22.0905" fill="#00479B"/>
</g>
</svg>
