<svg width="126" height="25" viewBox="0 0 126 25" fill="none" xmlns="http://www.w3.org/2000/svg">
<mask id="mask0_2748_7216" style="mask-type:luminance" maskUnits="userSpaceOnUse" x="0" y="0" width="126" height="25">
<path d="M125.61 0H0V25H125.61V0Z" fill="white"/>
</mask>
<g mask="url(#mask0_2748_7216)">
<path d="M19.5327 11.9295C17.3347 10.4528 14.5202 11.053 13.0379 13.2755C11.808 15.1325 9.94378 15.3613 9.22512 15.3613C6.87073 15.3613 5.26506 13.7271 4.78697 12.0335C4.78095 12.0157 4.77795 12.0009 4.77494 11.986C4.76893 11.9652 4.76592 11.9474 4.7599 11.9295C4.57348 11.2224 4.52537 10.8866 4.52537 10.1349C4.52537 6.09403 8.72598 1.59259 14.7698 1.59259C20.8137 1.59259 24.5062 6.24854 25.4202 8.83945C25.4022 8.79189 25.3871 8.74732 25.3721 8.70274C23.6161 3.63977 18.757 0 13.0349 0C5.83637 0 0 5.7642 0 12.8833C0 19.2447 4.64263 24.6851 11.0834 24.6851C16.2191 24.6851 19.671 21.8416 21.2497 17.9195C22.1187 15.7743 21.5052 13.2547 19.5327 11.9295Z" fill="#003763"/>
<path d="M25.5016 9.08901C24.7378 6.56346 21.1716 1.59256 14.77 1.59256C8.72613 1.59256 4.52551 6.09401 4.52551 10.1349C4.52551 10.8836 4.57362 11.2194 4.76005 11.9295C4.68187 11.6205 4.64278 11.3115 4.64278 11.0114C4.64278 6.80115 8.90955 3.88338 13.2936 3.88338C19.2322 3.88338 24.0432 8.64035 24.0432 14.5055C24.0432 19.1021 21.3641 23.0835 17.4762 24.997C22.4917 23.2054 26.0728 18.4573 26.0728 12.8833C26.0728 11.564 25.8925 10.3993 25.5016 9.09194V9.08901Z" fill="#E4022D"/>
<path d="M37.4388 14.051V13.2815H32.2729V11.9058H44.2524V13.2815H39.0715V14.051C39.2219 14.0956 39.3873 14.1402 39.5346 14.1996C39.9225 14.363 40.2683 14.5681 40.569 14.8354C40.8697 15.1177 41.1072 15.4267 41.2876 15.7833C41.453 16.1547 41.5432 16.538 41.5432 16.954C41.5432 17.37 41.453 17.7532 41.2876 18.1068C41.1072 18.4752 40.8667 18.8021 40.569 19.0665C40.2683 19.3339 39.9255 19.5538 39.5346 19.7023C39.1317 19.8657 38.7107 19.9401 38.2627 19.9401C37.8147 19.9401 37.3787 19.8657 36.9908 19.7023C36.5878 19.5538 36.242 19.3309 35.9564 19.0665C35.6587 18.8021 35.4182 18.4752 35.2528 18.1068C35.0724 17.7503 34.9822 17.367 34.9822 16.954C34.9822 16.5409 35.0724 16.1547 35.2528 15.7833C35.4182 15.4267 35.6587 15.1177 35.9564 14.8354C36.242 14.5681 36.5848 14.363 36.9908 14.1996C37.1411 14.1402 37.2915 14.0956 37.4388 14.051ZM43.4135 7.99861H39.0114L43.654 10.441L42.9204 11.6235L38.2627 9.16635L33.605 11.6235L32.8714 10.441L37.514 7.99861H33.1119V6.63782H43.4135V7.99861ZM39.9405 16.954C39.9405 16.5112 39.7751 16.125 39.4474 15.8011C39.1016 15.4891 38.7137 15.3257 38.2627 15.3257C37.8117 15.3257 37.4237 15.4891 37.096 15.8011C36.7502 16.125 36.5878 16.5112 36.5878 16.954C36.5878 17.3967 36.7533 17.7829 37.096 18.0919C37.4268 18.4158 37.8147 18.5792 38.2627 18.5792C38.7107 18.5792 39.1016 18.4158 39.4474 18.0919C39.7782 17.78 39.9405 17.3967 39.9405 16.954Z" fill="#555555"/>
<path d="M50.7988 16.9954V13.2963H52.4315V16.9954H57.6124V18.4157H45.6329V16.9954H50.7988ZM51.6226 9.13952L47.2807 14.5115L46.0238 13.5785L51.6257 6.66745L57.2275 13.5785L55.9706 14.5115L51.6287 9.13952H51.6226Z" fill="#555555"/>
<path d="M65.1616 13.5934H59.5179V6.75659H61.0604V8.60769H63.6525V6.75659H65.1647V13.5934H65.1616ZM60.0712 19.114V14.8087H61.689V17.6937H70.989V19.114H60.0712ZM63.6494 9.98336H61.0573V12.2178H63.6494V9.98336ZM66.8244 6.48922H68.3525V14.6571H66.8244V10.7203H65.4628V9.31489H66.8244V6.48922ZM69.3086 6.47733H70.8659V14.7344H69.3086V6.47733Z" fill="#555555"/>
<path d="M75.9293 7.83813V6.46246H77.6677V7.83813H80.7824V9.21381H77.472L81.05 17.1292L79.7031 17.7205L76.7982 11.1808L73.9238 17.8245L72.547 17.2183L76.125 9.21381H72.6793V7.83813H75.9293ZM82.758 13.017H80.2415V11.5967H82.758V6.47734H84.3757V19.3665H82.758V13.02V13.017Z" fill="#555555"/>
<path d="M92.8555 17.6759H91.2378V8.70873H86.2378V7.27361H92.8555V17.6759ZM96.1183 6.47733H97.736V19.3665H96.1183V6.47733Z" fill="#555555"/>
<path d="M107.292 9.8497C107.292 10.3073 107.202 10.7381 107.024 11.1214C106.829 11.5225 106.577 11.8612 106.261 12.1584C105.948 12.4525 105.587 12.6902 105.167 12.8536C104.734 13.0319 104.282 13.121 103.804 13.121C103.326 13.121 102.875 13.0319 102.457 12.8536C102.024 12.6902 101.648 12.4525 101.348 12.1584C101.017 11.8612 100.779 11.5225 100.599 11.1214C100.404 10.7381 100.313 10.3073 100.313 9.8497C100.313 9.39214 100.404 8.97617 100.599 8.56312C100.779 8.17983 101.017 7.8233 101.348 7.52617C101.648 7.22903 102.021 6.99434 102.457 6.81605C102.878 6.65263 103.326 6.56348 103.804 6.56348C104.282 6.56348 104.734 6.65263 105.167 6.81605C105.584 6.99434 105.945 7.22903 106.261 7.52617C106.577 7.8233 106.829 8.1769 107.024 8.56312C107.205 8.97909 107.292 9.40696 107.292 9.8497ZM101.182 13.6678H102.77V14.88H109.809V13.6678H111.396V19.114H101.185V13.6678H101.182ZM105.735 9.8497C105.735 9.33269 105.539 8.88702 105.181 8.50373C104.793 8.13233 104.343 7.94214 103.82 7.94214C103.296 7.94214 102.83 8.13525 102.457 8.50373C102.07 8.88995 101.889 9.33269 101.889 9.8497C101.889 10.3667 102.07 10.8272 102.457 11.1808C102.833 11.5671 103.281 11.7424 103.82 11.7424C104.357 11.7424 104.793 11.5641 105.181 11.1808C105.539 10.8243 105.735 10.3815 105.735 9.8497ZM109.809 16.1814H102.77V17.7799H109.809V16.1814ZM107.713 9.1544H109.779V6.47733H111.396V13.2993H109.779V10.5628H107.713V9.15739V9.1544Z" fill="#555555"/>
<path d="M113.63 14.6304H125.61V16.0507H120.429V19.3636H118.796V16.0507H113.63V14.6304ZM116.189 8.32544H123.048V6.6972H124.651V12.8982H114.587V6.6972H116.189V8.32544ZM123.048 9.71599H116.189V11.4928H123.048V9.71599Z" fill="#555555"/>
</g>
</svg>
