<svg width="192" height="48" viewBox="0 0 192 48" fill="none" xmlns="http://www.w3.org/2000/svg">
<g id="&#234;&#181;&#173;&#235;&#166;&#189;&#236;&#164;&#145;&#236;&#149;&#153;&#235;&#143;&#132;&#236;&#132;&#156;&#234;&#180;&#128;" clip-path="url(#clip0_246_22826)">
<g id="Group">
<path id="Vector" d="M66.8139 26.6653V24.0142H59.5586V22.0136H76.3654V24.0142H69.0876V26.6653H75.0092V33.01H72.7355V28.6435H60.7044V26.6653H66.8139ZM74.9734 15.1387V20.5656H72.6996V17.1392H60.8745V15.1387H74.9734Z" fill="#58595B"/>
<path id="Vector_2" d="M89.2353 24.5852H79.375V19.0335H86.7736V17.2156H79.375V15.2997H89.0294V20.8692H81.6308V22.7049H89.2353V24.5807V24.5852ZM80.4 25.5431H82.6334V27.0536H92.4937V25.5431H94.7271V32.6008H80.4V25.5431ZM92.4937 28.8893H82.6334V30.725H92.4937V28.8893ZM92.4534 14.7695H94.7271V24.9283H92.4534V14.7695Z" fill="#58595B"/>
<path id="Vector_3" d="M105.099 25.4623V24.3617H97.8438V22.4236H114.651V24.3617H107.373V25.4623C107.606 25.5157 107.825 25.5826 108.031 25.6672C108.59 25.8989 109.074 26.2063 109.485 26.5851C109.897 26.9638 110.224 27.4093 110.47 27.9217C110.716 28.4341 110.837 28.9777 110.837 29.5659C110.837 30.154 110.716 30.6976 110.47 31.21C110.224 31.7179 109.897 32.1635 109.485 32.5466C109.074 32.9254 108.59 33.2283 108.031 33.4556C107.471 33.6784 106.876 33.7942 106.249 33.7942C105.623 33.7942 105.027 33.6828 104.468 33.4556C103.909 33.2328 103.421 32.9298 103.013 32.5466C102.602 32.1679 102.275 31.7224 102.029 31.21C101.782 30.6976 101.662 30.154 101.662 29.5659C101.662 28.9777 101.782 28.4341 102.029 27.9217C102.275 27.4093 102.602 26.9682 103.013 26.5851C103.425 26.2063 103.909 25.8989 104.468 25.6672C104.674 25.587 104.884 25.5157 105.104 25.4623H105.099ZM113.46 16.912H107.292L113.809 20.3383L112.762 22.0092L106.245 18.5606L99.7057 22.0092L98.6807 20.3383L105.198 16.912H99.0298V14.9961H113.46V16.912ZM108.604 29.5614C108.604 28.9376 108.366 28.394 107.896 27.9396C107.427 27.4851 106.876 27.2579 106.245 27.2579C105.614 27.2579 105.068 27.4851 104.593 27.9396C104.123 28.394 103.886 28.9376 103.886 29.5614C103.886 30.1852 104.123 30.7288 104.593 31.1832C105.063 31.6377 105.614 31.8649 106.245 31.8649C106.876 31.8649 107.422 31.6377 107.896 31.1832C108.366 30.7288 108.604 30.1852 108.604 29.5614Z" fill="#58595B"/>
<path id="Vector_4" d="M126.637 19.5236C126.637 20.1786 126.503 20.7801 126.239 21.3415C125.97 21.8985 125.621 22.3886 125.182 22.8119C124.73 23.2351 124.207 23.5649 123.616 23.8099C123.021 24.055 122.389 24.1753 121.718 24.1753C121.047 24.1753 120.416 24.055 119.82 23.8099C119.225 23.5649 118.701 23.2307 118.254 22.8119C117.802 22.3886 117.444 21.8985 117.18 21.3415C116.911 20.7846 116.781 20.1786 116.781 19.5236C116.781 18.8687 116.916 18.2805 117.18 17.7191C117.448 17.1533 117.806 16.6676 118.254 16.2622C118.706 15.8389 119.23 15.5092 119.82 15.2641C120.416 15.019 121.047 14.8987 121.718 14.8987C122.389 14.8987 123.021 15.019 123.616 15.2641C124.211 15.5092 124.735 15.8433 125.182 16.2622C125.621 16.6721 125.97 17.1577 126.239 17.7191C126.507 18.285 126.637 18.8865 126.637 19.5236ZM124.444 19.5459C124.444 18.7974 124.175 18.1602 123.643 17.63C123.11 17.0998 122.466 16.8325 121.718 16.8325C120.971 16.8325 120.313 17.0998 119.793 17.63C119.274 18.1602 119.015 18.8018 119.015 19.5459C119.015 20.29 119.274 20.9494 119.793 21.4752C120.313 22.0009 120.953 22.2594 121.718 22.2594C122.483 22.2594 123.11 21.9965 123.643 21.4752C124.175 20.9539 124.444 20.3078 124.444 19.5459ZM130.983 28.9918C130.983 29.6155 130.853 30.2037 130.594 30.7562C130.334 31.3087 129.994 31.7854 129.569 32.1953C129.117 32.6186 128.602 32.9483 128.02 33.1934C127.438 33.4384 126.816 33.5587 126.145 33.5587C125.473 33.5587 124.847 33.4384 124.26 33.1934C123.674 32.9483 123.155 32.6141 122.703 32.1953C122.264 31.7854 121.915 31.3087 121.66 30.7562C121.4 30.2037 121.271 29.6155 121.271 28.9918C121.271 28.368 121.4 27.7754 121.66 27.2184C121.92 26.6615 122.269 26.1847 122.703 25.7882C123.155 25.3649 123.674 25.0352 124.26 24.7901C124.847 24.5451 125.478 24.4248 126.145 24.4248C126.812 24.4248 127.438 24.5451 128.02 24.7901C128.602 25.0352 129.117 25.3694 129.569 25.7882C129.994 26.1847 130.334 26.657 130.594 27.2184C130.853 27.7754 130.983 28.368 130.983 28.9918ZM128.768 28.9695C128.768 28.261 128.508 27.6506 127.989 27.1338C127.47 26.6169 126.847 26.3585 126.122 26.3585C125.397 26.3585 124.78 26.6169 124.269 27.1338C123.759 27.6506 123.499 28.261 123.499 28.9695C123.499 29.6779 123.755 30.3017 124.269 30.8052C124.78 31.3087 125.402 31.5582 126.122 31.5582C126.843 31.5582 127.47 31.3042 127.989 30.8052C128.508 30.3017 128.768 29.6913 128.768 28.9695ZM131.802 24.4203H129.546V14.7695H131.802V18.4231H134.425V20.6687H131.802V24.4248V24.4203Z" fill="#58595B"/>
<path id="Vector_5" d="M137.481 25.1147V15.709H151.58V17.6873H139.733V23.1364H151.62V25.1147H145.654V29.6238H152.932V31.6243H136.125V29.6238H143.38V25.1147H137.477H137.481Z" fill="#58595B"/>
<path id="Vector_6" d="M160.824 14.8937L166.808 29.6061L164.781 30.4838L160.824 20.5078L156.89 30.6264L154.84 29.7308L160.824 14.8982V14.8937ZM169.024 23.0163H165.439V21.0157H169.024V14.7734H171.297V32.9745H169.024V23.0163Z" fill="#58595B"/>
<path id="Vector_7" d="M185.99 23.6852V25.6634H174.125V23.6852H177.835V19.6261H180.091V23.6852H185.995H185.99ZM182.732 21.9519V17.1176H174.944V15.1393H184.965V21.9519H182.732ZM175.414 32.6632V27.1962H177.688V30.6626H189.987V32.6632H175.414ZM189.656 26.7239H187.382V14.7695H189.656V19.6662H191.993V21.7247H189.656V26.7239Z" fill="#58595B"/>
</g>
<g id="Group_2">
<path id="Vector_8" d="M48.4642 24C48.4642 37.2565 37.6133 48 24.2343 48C10.8553 48 0 37.2565 0 24C0 10.7435 10.8464 0 24.2343 0C37.6223 0 48.4642 10.7479 48.4642 24Z" fill="white"/>
<path id="Vector_9" d="M35.5921 22.3257C31.7395 19.7329 26.8085 20.7877 24.2178 24.688C22.061 27.9456 18.799 28.3534 17.5417 28.3534C13.4206 28.3534 10.6061 25.4814 9.76932 22.5118C9.76037 22.4808 9.75142 22.4542 9.74695 22.4276C9.738 22.3966 9.73352 22.3611 9.7201 22.3257C9.38898 21.0847 9.30844 20.4952 9.30844 19.1789C9.30844 12.083 16.6647 4.17611 27.2515 4.17611C37.8384 4.17611 44.3042 12.3534 45.9105 16.9008C45.8792 16.8166 45.8524 16.7412 45.8255 16.6614C42.747 7.76613 34.2319 1.375 24.2088 1.375C11.6039 1.375 1.375 11.498 1.375 23.9966C1.375 35.1656 9.50532 44.7213 20.7902 44.7213C29.7841 44.7213 35.8293 39.7307 38.5991 32.8387C40.1204 29.0714 39.0465 24.6481 35.5921 22.3213" fill="#003964"/>
<path id="Vector_10" d="M46.0455 17.3431C44.7076 12.9066 38.4611 4.17969 27.2478 4.17969C16.6609 4.17969 9.30469 12.0866 9.30469 19.1825C9.30469 20.4988 9.3897 21.0883 9.71635 22.3293C9.57764 21.7841 9.50604 21.2434 9.50604 20.716C9.50604 13.3232 16.9786 8.19963 24.6615 8.19963C35.0649 8.19963 43.495 16.5498 43.495 26.85C43.495 34.921 38.8011 41.9149 31.9908 45.27C40.7789 42.1232 47.0523 33.7863 47.0523 24.0002C47.0523 21.6822 46.7391 19.639 46.05 17.3431" fill="#ED1A3B"/>
</g>
</g>
<defs>
<clipPath id="clip0_246_22826">
<rect width="192" height="48" fill="white"/>
</clipPath>
</defs>
</svg>
