<svg width="114" height="42" viewBox="0 0 114 42" fill="none" xmlns="http://www.w3.org/2000/svg">
<path d="M17.5269 17.2007H14.3314V11.327H10.0231V17.2007H9.54888C7.44457 17.2007 5.73095 15.4871 5.73095 13.3828C5.73095 11.2785 7.44188 9.56489 9.54888 9.56489H17.1848V5.41016H0V9.56489H2.40069C1.77829 10.6992 1.42533 12.0006 1.42533 13.3828C1.42533 14.765 1.77829 16.0664 2.40069 17.2007H0V21.3555H17.5269V17.2007Z" fill="#622C80"/>
<path d="M20.5312 5.4126V17.2005H24.8369V9.56733H28.7922V5.4126H20.5312Z" fill="#622C80"/>
<path d="M17.2197 23.7021H12.9114C12.9114 28.0994 16.4868 31.6775 20.8867 31.6775H25.1627V27.5228H21.0376C18.9306 27.5228 17.2197 25.8092 17.2197 23.7021Z" fill="#622C80"/>
<path d="M46.3192 27.523H43.1236V21.6493H38.818V27.523H38.3438C36.2395 27.523 34.5259 25.8121 34.5259 23.7051C34.5259 21.5981 36.2368 19.8872 38.3438 19.8872H45.9797V15.7324H28.7949V19.8872H31.1956C30.5732 21.0215 30.2202 22.3229 30.2202 23.7051C30.2202 25.0873 30.5732 26.386 31.1956 27.523H28.7949V31.6777H46.3219V27.523H46.3192Z" fill="#622C80"/>
<path d="M49.3235 15.7324V27.523H53.6291V19.8898H57.5845V15.7324H49.3235Z" fill="#622C80"/>
<path d="M46.0119 34.0244H41.7036C41.7036 38.4216 45.2818 41.9998 49.679 41.9998H53.955V37.845H49.8299C47.7229 37.845 46.0119 36.1314 46.0119 34.0244Z" fill="#622C80"/>
<path d="M59.2629 23.7051C59.2629 28.1023 62.8411 31.6777 67.2356 31.6777H71.7864V27.523H67.3892C65.2849 27.523 63.5713 25.8121 63.5713 23.7051C63.5713 21.5981 65.2822 19.8872 67.3892 19.8872H71.7864V15.7324H67.3892C62.992 15.7324 59.2656 19.3079 59.2656 23.7051H59.2629Z" fill="#622C80"/>
<path d="M113.991 38.6397H98.9377V31.6774H98.7222C94.3276 31.6774 90.7495 28.1019 90.7495 23.7047C90.7495 19.3075 94.4785 15.7321 98.8731 15.7321H99.9508C101.651 15.7321 103.033 14.3498 103.033 12.6497C103.033 10.9495 101.651 9.56733 99.9508 9.56733H94.5163V5.4126H100.104C104.095 5.4126 107.342 8.65932 107.342 12.6524C107.342 16.6455 104.095 19.8895 100.104 19.8895H98.8758C96.7715 19.8895 95.0578 21.6004 95.0578 23.7074C95.0578 25.8144 96.7688 27.5253 98.8758 27.5253H103.249V34.4876H113.994V38.6423L113.991 38.6397Z" fill="#622C80"/>
<path d="M83.0649 15.7324V19.5504H78.8859V15.7324H74.5776V27.523H78.8859V23.7051H83.0649V27.523H87.3705V15.7324H83.0649Z" fill="#622C80"/>
<path d="M45.5216 0.140108C45.5162 0.115858 45.4758 0 45.3411 0H41.0085C40.7633 0 40.5235 0.064665 40.3107 0.185912L36.2799 2.51385C35.8488 2.76174 35.582 3.22517 35.582 3.72093V8.37682C35.582 8.87528 35.8488 9.33601 36.2799 9.5839L37.3792 10.2198C37.4735 10.2737 37.592 10.2737 37.6863 10.2198L40.1005 8.816C40.1652 8.77828 40.1652 8.68667 40.1005 8.64895L38.3034 7.61161V4.5023L38.3572 4.4565L40.6771 3.11739L45.4381 0.350269C45.5566 0.280215 45.5324 0.161663 45.5243 0.137413L45.5216 0.140108Z" fill="#00489D"/>
<path d="M46.4323 8.37958V3.7237C46.4323 3.22524 46.1656 2.7645 45.7345 2.51662L44.6351 1.88075C44.5408 1.82686 44.4223 1.82686 44.328 1.88075L41.9138 3.28452C41.8492 3.32224 41.8492 3.41385 41.9138 3.45157L43.711 4.4889V7.59822L43.6571 7.64402L41.3372 8.98312L36.5763 11.7502C36.4577 11.8203 36.482 11.9389 36.49 11.9631C36.4954 11.9874 36.5358 12.1032 36.6706 12.1032H41.0031C41.2483 12.1032 41.4881 12.0385 41.701 11.9173L45.7318 9.58936C46.1629 9.34148 46.4296 8.87804 46.4296 8.38228L46.4323 8.37958Z" fill="#00A3A3"/>
<path d="M38.9985 5.04135V7.07022C38.9985 7.1295 39.0605 7.16452 39.1117 7.13488L41.0032 6.03827V3.8208L39.047 4.95513C39.0174 4.97399 38.9985 5.00633 38.9985 5.04135Z" fill="#00A3A3"/>
<path d="M43.0078 5.04135V7.07022C43.0078 7.1295 42.9458 7.16452 42.8946 7.13488L41.0032 6.03827V3.8208L42.9593 4.95513C42.9889 4.97399 43.0078 5.00633 43.0078 5.04135Z" fill="#00489D"/>
<path d="M51.0747 6.93819L50.0616 8.10755V9.77806H48.3992V2.3335H50.0616V5.84157L53.0389 2.3335H55.0758L52.1524 5.70416L55.2294 9.77806H53.1547L51.072 6.93819H51.0747Z" fill="#00489D"/>
<path d="M54.8279 6.05163C54.8279 3.79644 56.5361 2.14209 58.8479 2.14209C61.1597 2.14209 62.8679 3.79644 62.8679 6.05163C62.8679 8.30682 61.1597 9.96117 58.8479 9.96117C56.5361 9.96117 54.8279 8.30682 54.8279 6.05163ZM61.2028 6.05163C61.2028 4.64517 60.1978 3.64016 58.8452 3.64016C57.4926 3.64016 56.4876 4.64517 56.4876 6.05163C56.4876 7.45809 57.4926 8.4631 58.8452 8.4631C60.1978 8.4631 61.2028 7.45001 61.2028 6.05163Z" fill="#00489D"/>
<path d="M63.8513 2.3335H66.737C69.2024 2.3335 70.7274 3.85851 70.7274 6.05982C70.7274 8.26112 69.2024 9.77806 66.737 9.77806H63.8513V2.3335ZM66.7639 8.30693C68.1893 8.30693 69.0649 7.49323 69.0649 6.05982C69.0649 4.62641 68.1893 3.80463 66.7639 3.80463H65.5138V8.30693H66.7639Z" fill="#00489D"/>
<path d="M71.7244 2.3335H73.05L75.6177 6.499L78.1855 2.3335H79.5111V9.77806H77.8487V5.69608L76.1216 8.55481H75.1166L73.3895 5.69608V9.77806H71.7271V2.3335H71.7244Z" fill="#00489D"/>
<path d="M85.3796 8.33387H82.4939L81.9739 9.77806H80.2576L83.1432 2.3335H84.8703L87.756 9.77806H85.9023L85.3823 8.33387H85.3796ZM84.8677 6.88969L83.9354 4.295L83.0031 6.88969H84.8677Z" fill="#00489D"/>
</svg>
