<svg width="20" height="20" viewBox="0 0 20 20" fill="none" xmlns="http://www.w3.org/2000/svg">
<path d="M10.0001 0.84375V3.64062M3.31421 4.95474L1 2.84375M16.6859 4.95474L19 2.84375" stroke="white" stroke-width="1.66667" stroke-linecap="round" stroke-linejoin="round"/>
<path d="M1.99236 19.1551H18.0083C18.6156 19.1551 18.9193 19.1551 19.122 19.0284C19.2995 18.9174 19.4288 18.7437 19.4841 18.5418C19.5472 18.3112 19.4599 18.0204 19.2854 17.4386L18.6362 15.2746C18.5428 14.9632 18.4961 14.8075 18.4076 14.6893C18.3108 14.5598 18.1784 14.4614 18.0266 14.4058C17.888 14.3551 17.7254 14.3551 17.4003 14.3551H2.60032C2.27523 14.3551 2.11268 14.3551 1.97401 14.4058C1.82222 14.4614 1.68985 14.5598 1.59303 14.6893C1.50459 14.8075 1.45788 14.9632 1.36447 15.2746L0.715259 17.4386C0.540734 18.0204 0.453471 18.3112 0.516588 18.5418C0.571865 18.7437 0.701111 18.9174 0.878625 19.0284C1.08131 19.1551 1.385 19.1551 1.99236 19.1551Z" fill="white"/>
<path d="M16.8137 10.6677C17.0062 11.3093 16.5266 11.9551 15.8568 11.9551C14.34 11.9551 11.8435 11.9551 9.99993 11.9551C8.15633 11.9551 5.65985 11.9551 4.14308 11.9551C3.47322 11.9551 2.99365 11.3093 3.18613 10.6677L4.38613 6.66773C4.51303 6.24475 4.90235 5.95508 5.34396 5.95508H14.6559C15.0975 5.95508 15.4868 6.24475 15.6137 6.66773L16.8137 10.6677Z" fill="white"/>
</svg>
