<svg width="200" height="73" viewBox="0 0 200 73" fill="none" xmlns="http://www.w3.org/2000/svg">
<path d="M31.3965 29.9002H25.8423V19.6907H18.3539V29.9002H17.5297C13.8721 29.9002 10.8937 26.9216 10.8937 23.264C10.8937 19.6064 13.8675 16.6278 17.5297 16.6278H30.8017V9.40625H0.932617V16.6278H5.1053C4.02349 18.5995 3.41 20.8615 3.41 23.264C3.41 25.6665 4.02349 27.9285 5.1053 29.9002H0.932617V37.1218H31.3965V29.9002Z" fill="#622C80"/>
<path d="M36.6182 9.41406V29.9033H44.1018V16.6356H50.9767V9.41406H36.6182Z" fill="#622C80"/>
<path d="M30.8624 41.2031H23.374C23.374 48.8462 29.5886 55.0656 37.2361 55.0656H44.6683V47.844H37.4984C33.8362 47.844 30.8624 44.8654 30.8624 41.2031Z" fill="#622C80"/>
<path d="M81.4406 47.8377H75.8864V37.6282H68.4028V47.8377H67.5785C63.921 47.8377 60.9425 44.8638 60.9425 41.2015C60.9425 37.5392 63.9163 34.5653 67.5785 34.5653H80.8505V27.3438H50.9814V34.5653H55.1541C54.0723 36.537 53.4588 38.799 53.4588 41.2015C53.4588 43.604 54.0723 45.8614 55.1541 47.8377H50.9814V55.0593H81.4453V47.8377H81.4406Z" fill="#622C80"/>
<path d="M86.6621 27.3438V47.8377H94.1458V34.57H101.021V27.3438H86.6621Z" fill="#622C80"/>
<path d="M80.9073 59.1406H73.4189C73.4189 66.7837 79.6382 73.0031 87.2811 73.0031H94.7132V65.7815H87.5433C83.8811 65.7815 80.9073 62.8029 80.9073 59.1406Z" fill="#622C80"/>
<path d="M103.938 41.2015C103.938 48.8446 110.158 55.0593 117.796 55.0593H125.706V47.8377H118.063C114.405 47.8377 111.427 44.8638 111.427 41.2015C111.427 37.5392 114.401 34.5653 118.063 34.5653H125.706V27.3438H118.063C110.42 27.3438 103.943 33.5584 103.943 41.2015H103.938Z" fill="#622C80"/>
<path d="M199.062 67.168H172.897V55.0665H172.522C164.884 55.0665 158.665 48.8518 158.665 41.2087C158.665 33.5656 165.147 27.3509 172.785 27.3509H174.658C177.613 27.3509 180.015 24.9484 180.015 21.9933C180.015 19.0382 177.613 16.6356 174.658 16.6356H165.212V9.41406H174.925C181.861 9.41406 187.504 15.0574 187.504 21.998C187.504 28.9386 181.861 34.5772 174.925 34.5772H172.789C169.132 34.5772 166.153 37.5511 166.153 41.2134C166.153 44.8757 169.127 47.8496 172.789 47.8496H180.39V59.9511H199.067V67.1727L199.062 67.168Z" fill="#622C80"/>
<path d="M145.311 27.3438V33.9799H138.047V27.3438H130.559V47.8377H138.047V41.2015H145.311V47.8377H152.794V27.3438H145.311Z" fill="#622C80"/>
<path d="M80.0544 0.243529C80.0451 0.20138 79.9748 0 79.7407 0H72.2102C71.784 0 71.3672 0.112398 70.9972 0.323145L63.9913 4.36948C63.242 4.80034 62.7783 5.60586 62.7783 6.46758V14.5603C62.7783 15.4267 63.242 16.2275 63.9913 16.6584L65.902 17.7636C66.0659 17.8573 66.2719 17.8573 66.4359 17.7636L70.632 15.3236C70.7444 15.2581 70.7444 15.0988 70.632 15.0333L67.5083 13.2302V7.82573L67.602 7.74611L71.6342 5.41853L79.9093 0.608824C80.1153 0.487059 80.0732 0.280996 80.0591 0.238846L80.0544 0.243529Z" fill="#00489D"/>
<path d="M81.6378 14.5616V6.46891C81.6378 5.60251 81.1742 4.80167 80.4249 4.37081L78.5141 3.26556C78.3502 3.1719 78.1442 3.1719 77.9803 3.26556L73.7842 5.70554C73.6718 5.7711 73.6718 5.93034 73.7842 5.9959L76.9078 7.79896V13.2034L76.8142 13.2831L72.782 15.6106L64.5068 20.4203C64.3008 20.5421 64.3429 20.7482 64.357 20.7903C64.3663 20.8325 64.4366 21.0338 64.6708 21.0338H72.2013C72.6274 21.0338 73.0442 20.9214 73.4142 20.7107L80.4202 16.6644C81.1695 16.2335 81.6331 15.428 81.6331 14.5663L81.6378 14.5616Z" fill="#00A3A3"/>
<path d="M68.7178 8.76214V12.2886C68.7178 12.3917 68.8255 12.4525 68.9145 12.401L72.202 10.4949V6.64062L68.8021 8.61228C68.7506 8.64506 68.7178 8.70126 68.7178 8.76214Z" fill="#00A3A3"/>
<path d="M75.6845 8.76214V12.2886C75.6845 12.3917 75.5767 12.4525 75.4878 12.401L72.2002 10.4949V6.64062L75.6002 8.61228C75.6517 8.64506 75.6845 8.70126 75.6845 8.76214Z" fill="#00489D"/>
<path d="M89.707 12.0506L87.9461 14.0831V16.9867H85.0566V4.04688H87.9461V10.1445L93.121 4.04688H96.6615L91.5803 9.90563L96.9284 16.9867H93.3224L89.7023 12.0506H89.707Z" fill="#00489D"/>
<path d="M96.2305 10.5142C96.2305 6.59427 99.1996 3.71875 103.218 3.71875C107.236 3.71875 110.205 6.59427 110.205 10.5142C110.205 14.434 107.236 17.3096 103.218 17.3096C99.1996 17.3096 96.2305 14.434 96.2305 10.5142ZM107.311 10.5142C107.311 8.0695 105.564 6.32264 103.213 6.32264C100.862 6.32264 99.1153 8.0695 99.1153 10.5142C99.1153 12.9588 100.862 14.7057 103.213 14.7057C105.564 14.7057 107.311 12.9448 107.311 10.5142Z" fill="#00489D"/>
<path d="M111.914 4.04688H116.93C121.215 4.04688 123.865 6.6976 123.865 10.5238C123.865 14.35 121.215 16.9867 116.93 16.9867H111.914V4.04688ZM116.977 14.4297C119.454 14.4297 120.976 13.0153 120.976 10.5238C120.976 8.03233 119.454 6.60393 116.977 6.60393H114.804V14.4297H116.977Z" fill="#00489D"/>
<path d="M125.599 4.04688H127.903L132.366 11.2872L136.829 4.04688H139.133V16.9867H136.243V9.89158L133.242 14.8605H131.495L128.493 9.89158V16.9867H125.603V4.04688H125.599Z" fill="#00489D"/>
<path d="M149.333 14.4765H144.318L143.414 16.9867H140.431L145.446 4.04688H148.448L153.464 16.9867H150.242L149.338 14.4765H149.333ZM148.444 11.9663L146.823 7.45629L145.203 11.9663H148.444Z" fill="#00489D"/>
</svg>
