<svg width="32" height="32" viewBox="0 0 32 32" fill="none" xmlns="http://www.w3.org/2000/svg">
<path d="M16 0.400391C24.6156 0.400391 31.5996 7.38436 31.5996 16C31.5996 24.6156 24.6156 31.5996 16 31.5996C7.38436 31.5996 0.400391 24.6156 0.400391 16C0.400391 7.38436 7.38436 0.400391 16 0.400391Z" fill="white"/>
<path d="M16 0.400391C24.6156 0.400391 31.5996 7.38436 31.5996 16C31.5996 24.6156 24.6156 31.5996 16 31.5996C7.38436 31.5996 0.400391 24.6156 0.400391 16C0.400391 7.38436 7.38436 0.400391 16 0.400391Z" stroke="#CDD1D5" stroke-width="0.8"/>
<path fill-rule="evenodd" clip-rule="evenodd" d="M13.1243 22.1879C13.3607 22.4506 13.7654 22.4719 14.0281 22.2355L20.4281 16.4757C20.563 16.3544 20.64 16.1815 20.64 16C20.64 15.8186 20.563 15.6457 20.4281 15.5243L14.0281 9.76392C13.7654 9.52746 13.3607 9.54874 13.1243 9.81146C12.8878 10.0742 12.9091 10.4788 13.1718 10.7153L19.0433 16L13.1718 21.2841C12.9091 21.5205 12.8878 21.9252 13.1243 22.1879Z" fill="#33363D"/>
</svg>
