<svg width="32" height="32" viewBox="0 0 32 32" fill="none" xmlns="http://www.w3.org/2000/svg">
<path d="M16 31.5996C7.38436 31.5996 0.400391 24.6156 0.400391 16C0.400391 7.38436 7.38436 0.400391 16 0.400391C24.6156 0.400391 31.5996 7.38436 31.5996 16C31.5996 24.6156 24.6156 31.5996 16 31.5996Z" fill="white"/>
<path d="M16 31.5996C7.38436 31.5996 0.400391 24.6156 0.400391 16C0.400391 7.38436 7.38436 0.400391 16 0.400391C24.6156 0.400391 31.5996 7.38436 31.5996 16C31.5996 24.6156 24.6156 31.5996 16 31.5996Z" stroke="#CDD1D5" stroke-width="0.8"/>
<path fill-rule="evenodd" clip-rule="evenodd" d="M18.8757 9.8121C18.6393 9.54937 18.2346 9.52806 17.9719 9.76451L11.5719 15.5243C11.437 15.6456 11.36 15.8185 11.36 16C11.36 16.1814 11.437 16.3543 11.5719 16.4757L17.9719 22.2361C18.2346 22.4725 18.6393 22.4513 18.8757 22.1885C19.1122 21.9258 19.0909 21.5212 18.8282 21.2847L12.9567 16L18.8282 10.7159C19.0909 10.4795 19.1122 10.0748 18.8757 9.8121Z" fill="#33363D"/>
</svg>
