<svg width="80" height="80" viewBox="0 0 80 80" fill="none" xmlns="http://www.w3.org/2000/svg">
<rect width="80" height="80" rx="8" fill="#E6EBF1"/>
<path d="M64.0807 40.5591C65.4177 41.936 65.2915 43.2575 63.7338 44.3005C63.3637 44.5479 63.2634 45.0434 63.5064 45.4162C64.5174 46.9617 64.1447 48.1768 62.4573 48.8618C62.0379 49.0321 61.8389 49.5035 62.0102 49.9229C62.6908 51.5921 62.101 52.6827 60.341 53.0165C59.8921 53.1022 59.6042 53.5294 59.6932 53.9765C60.0409 55.7235 59.2608 56.6697 57.4818 56.661C57.0243 56.6585 56.6593 57.0234 56.661 57.4818C56.6706 59.2608 55.7244 60.0409 53.9765 59.6932C53.5285 59.6042 53.1013 59.8921 53.0165 60.341C52.6818 62.101 51.5912 62.6908 49.9229 62.0102C49.5035 61.8389 49.0321 62.0379 48.8618 62.4573C48.1777 64.1446 46.9625 64.5174 45.4162 63.5064C45.0434 63.2625 44.5487 63.3637 44.3005 63.7338C43.2575 65.2915 41.936 65.4169 40.5591 64.0807C40.2478 63.778 39.7522 63.778 39.4409 64.0807C38.064 65.4177 36.7425 65.2915 35.6995 63.7338C35.4521 63.3637 34.9566 63.2634 34.5838 63.5064C33.0383 64.5174 31.8232 64.1446 31.1382 62.4573C30.9679 62.0379 30.4965 61.8389 30.0771 62.0102C28.4079 62.6908 27.3173 62.101 26.9835 60.341C26.8978 59.8921 26.4706 59.6042 26.0235 59.6932C24.2765 60.0409 23.3303 59.2608 23.339 57.4818C23.3416 57.0243 22.9766 56.6593 22.5182 56.661C20.7392 56.6706 19.9591 55.7244 20.3068 53.9765C20.3958 53.5285 20.1079 53.1013 19.659 53.0165C17.899 52.6818 17.3092 51.5912 17.9898 49.9229C18.1611 49.5035 17.9621 49.0321 17.5427 48.8618C15.8553 48.1777 15.4826 46.9625 16.4936 45.4162C16.7375 45.0434 16.6363 44.5487 16.2662 44.3005C14.7085 43.2575 14.5831 41.936 15.9193 40.5591C16.222 40.2478 16.222 39.7522 15.9193 39.4409C14.5823 38.064 14.7085 36.7425 16.2662 35.6995C16.6363 35.4521 16.7366 34.9566 16.4936 34.5838C15.4826 33.0383 15.8553 31.8232 17.5427 31.1382C17.9621 30.9679 18.1611 30.4965 17.9898 30.0771C17.3092 28.4079 17.899 27.3173 19.659 26.9835C20.1079 26.8978 20.3958 26.4706 20.3068 26.0235C19.9591 24.2765 20.7392 23.3303 22.5182 23.339C22.9757 23.3416 23.3407 22.9766 23.339 22.5182C23.3294 20.7392 24.2756 19.9591 26.0235 20.3068C26.4715 20.3958 26.8987 20.1079 26.9835 19.659C27.3182 17.899 28.4088 17.3092 30.0771 17.9898C30.4965 18.1611 30.9679 17.9621 31.1382 17.5427C31.8223 15.8553 33.0375 15.4826 34.5838 16.4936C34.9566 16.7375 35.4513 16.6363 35.6995 16.2662C36.7425 14.7085 38.064 14.5831 39.4409 15.9193C39.7522 16.222 40.2478 16.222 40.5591 15.9193C41.936 14.5823 43.2575 14.7085 44.3005 16.2662C44.5479 16.6363 45.0434 16.7366 45.4162 16.4936C46.9617 15.4826 48.1768 15.8553 48.8618 17.5427C49.0321 17.9621 49.5035 18.1611 49.9229 17.9898C51.5921 17.3092 52.6827 17.899 53.0165 19.659C53.1022 20.1079 53.5294 20.3958 53.9765 20.3068C55.7235 19.9591 56.6697 20.7392 56.661 22.5182C56.6584 22.9757 57.0234 23.3407 57.4818 23.339C59.2608 23.3294 60.0409 24.2756 59.6932 26.0235C59.6042 26.4715 59.8921 26.8987 60.341 26.9835C62.101 27.3182 62.6908 28.4088 62.0102 30.0771C61.8389 30.4965 62.0379 30.9679 62.4573 31.1382C64.1447 31.8223 64.5174 33.0375 63.5064 34.5838C63.2625 34.9566 63.3637 35.4513 63.7338 35.6995C65.2915 36.7425 65.4169 38.064 64.0807 39.4409C63.778 39.7522 63.778 40.2478 64.0807 40.5591Z" fill="#24376B"/>
<path d="M39.6009 61.2018C50.9785 61.2018 60.2018 51.9785 60.2018 40.6009C60.2018 29.2233 50.9785 20 39.6009 20C28.2233 20 19 29.2233 19 40.6009C19 51.9785 28.2233 61.2018 39.6009 61.2018Z" fill="#FAF8F3"/>
</svg>
