<svg width="300" height="400" viewBox="0 0 300 400" fill="none" xmlns="http://www.w3.org/2000/svg">
<rect width="300" height="400" fill="#E8EBF2"/>
<path d="M218.496 0H81.4961V117H218.496V0Z" fill="#014489"/>
<path d="M97.9805 35V21.5664H106.126V23.0508H99.6504V27.541H105.699V29.0068H99.6504V33.5156H106.219V35H97.9805ZM116.09 24.9434C115.941 23.626 114.735 22.8652 113.121 22.8652C111.34 22.8652 110.171 23.793 110.171 25.0732C110.171 26.4834 111.748 27.0029 112.769 27.2627L114.104 27.6338C115.552 28.0049 117.908 28.8398 117.908 31.3447C117.908 33.5342 116.146 35.2412 113.028 35.2412C110.134 35.2412 108.334 33.7383 108.186 31.5117H109.893C110.041 33.0146 111.433 33.7197 113.028 33.7197C114.884 33.7197 116.275 32.7734 116.275 31.3076C116.275 30.0088 115.032 29.5078 113.622 29.0996L111.971 28.6543C109.855 28.042 108.557 26.9658 108.557 25.1475C108.557 22.8838 110.579 21.3809 113.177 21.3809C115.774 21.3809 117.648 22.9023 117.723 24.9434H116.09ZM129.468 25.7598C128.893 24.0342 127.575 22.9395 125.664 22.9395C123.289 22.9395 121.396 24.8135 121.396 28.2832C121.396 31.7529 123.289 33.627 125.775 33.627C128.048 33.627 129.598 32.1055 129.635 29.7305H126.128V28.2646H131.268V29.7119C131.268 33.0518 128.967 35.1855 125.775 35.1855C122.194 35.1855 119.782 32.5322 119.782 28.2832C119.782 24.0342 122.213 21.3809 125.664 21.3809C128.503 21.3809 130.692 23.1621 131.193 25.7598H129.468ZM146.649 25.8711V28.2275H153.459V29.4336H138.43V28.2275H145.221V25.8711H146.649ZM145.944 30.7881C149.488 30.7881 151.604 31.79 151.622 33.627C151.604 35.4639 149.488 36.4658 145.944 36.4658C142.363 36.4658 140.248 35.4639 140.248 33.627C140.248 31.79 142.363 30.7881 145.944 30.7881ZM145.944 31.9385C143.272 31.9385 141.714 32.5508 141.732 33.627C141.714 34.7031 143.272 35.334 145.944 35.334C148.579 35.334 150.156 34.7031 150.156 33.627C150.156 32.5508 148.579 31.9385 145.944 31.9385ZM152.123 20.7871V21.9746H146.891C146.983 23.8115 149.748 25.231 152.624 25.5371L152.086 26.6875C149.386 26.3628 146.854 25.1846 145.944 23.3477C145.044 25.1846 142.521 26.3628 139.803 26.6875L139.265 25.5371C142.141 25.231 144.887 23.8301 144.998 21.9746H139.803V20.7871H152.123ZM167.746 20.0078V24.2383H170.232V25.4814H167.746V29.6006H166.299V20.0078H167.746ZM158.766 30.3242V32.0869H166.299V30.3242H167.746V36.2803H157.318V30.3242H158.766ZM158.766 35.1113H166.299V33.2373H158.766V35.1113ZM164.722 21.7148V22.9209H154.888V21.7148H159.081V19.8594H160.528V21.7148H164.722ZM159.805 23.6816C162.18 23.6816 163.757 24.8135 163.775 26.5762C163.757 28.3389 162.18 29.4707 159.805 29.4707C157.411 29.4707 155.815 28.3389 155.834 26.5762C155.815 24.8135 157.411 23.6816 159.805 23.6816ZM159.805 24.8135C158.246 24.7949 157.207 25.5186 157.226 26.5762C157.207 27.6523 158.246 28.3574 159.805 28.3574C161.345 28.3574 162.384 27.6523 162.402 26.5762C162.384 25.5186 161.345 24.7949 159.805 24.8135ZM186.319 27.8564V29.0811H171.271V27.8564H186.319ZM184.557 25.0918V26.2793H173.183V20.6758H184.445V21.9004H174.611V25.0918H184.557ZM178.786 30.5283C182.33 30.5283 184.445 31.6045 184.464 33.4971C184.445 35.4082 182.33 36.4658 178.786 36.4658C175.224 36.4658 173.09 35.4082 173.09 33.4971C173.09 31.6045 175.224 30.5283 178.786 30.5283ZM178.786 31.6602C176.133 31.6787 174.556 32.3467 174.574 33.4971C174.556 34.666 176.133 35.3154 178.786 35.3154C181.402 35.3154 182.998 34.666 182.998 33.4971C182.998 32.3467 181.402 31.6787 178.786 31.6602ZM191.106 29.4521V31.6416H199.363V29.4521H200.811V36.2803H189.659V29.4521H191.106ZM191.106 35.0928H199.363V32.792H191.106V35.0928ZM200.811 20.7686V21.9746C200.811 23.2363 200.811 24.7021 200.365 26.7617H202.796V27.9678H187.692V26.7617H198.937C199.363 24.7114 199.363 23.2363 199.363 21.9746H189.604V20.7686H200.811Z" fill="white"/>
<path d="M219.837 118.328C223.715 122.322 223.349 126.154 218.832 129.179C217.758 129.896 217.467 131.334 218.172 132.415C221.104 136.897 220.023 140.421 215.129 142.407C213.913 142.901 213.336 144.268 213.833 145.485C215.807 150.326 214.096 153.489 208.992 154.457C207.69 154.705 206.855 155.944 207.113 157.241C208.122 162.308 205.859 165.052 200.7 165.026C199.373 165.019 198.314 166.077 198.319 167.407C198.347 172.566 195.603 174.829 190.534 173.82C189.235 173.562 187.996 174.397 187.75 175.699C186.779 180.803 183.616 182.514 178.778 180.54C177.561 180.043 176.194 180.62 175.7 181.837C173.716 186.73 170.192 187.811 165.708 184.879C164.627 184.172 163.192 184.465 162.472 185.539C159.447 190.056 155.615 190.42 151.621 186.544C150.718 185.667 149.281 185.667 148.378 186.544C144.385 190.422 140.553 190.056 137.528 185.539C136.81 184.465 135.373 184.174 134.292 184.879C129.81 187.811 126.286 186.73 124.299 181.837C123.805 180.62 122.438 180.043 121.222 180.54C116.381 182.514 113.218 180.803 112.25 175.699C112.002 174.397 110.763 173.562 109.466 173.82C104.399 174.829 101.655 172.566 101.68 167.407C101.688 166.08 100.629 165.021 99.3 165.026C94.1406 165.054 91.8782 162.31 92.8865 157.241C93.1449 155.942 92.3096 154.703 91.0079 154.457C85.9036 153.486 84.193 150.323 86.167 145.485C86.6636 144.268 86.0867 142.901 84.8703 142.407C79.9767 140.423 78.8957 136.899 81.8278 132.415C82.5351 131.334 82.2416 129.899 81.1681 129.179C76.6508 126.154 76.2871 122.322 80.1623 118.328C81.0402 117.426 81.0402 115.988 80.1623 115.085C76.2846 111.092 76.6508 107.26 81.1681 104.235C82.2416 103.517 82.5326 102.08 81.8278 100.999C78.8957 96.517 79.9767 92.993 84.8703 91.0065C86.0867 90.5123 86.6636 89.1454 86.167 87.9289C84.193 83.088 85.9036 79.9252 91.0079 78.957C92.3096 78.7087 93.1449 77.4696 92.8865 76.1729C91.8782 71.1063 94.1406 68.3623 99.3 68.3874C100.627 68.3949 101.685 67.3364 101.68 66.0071C101.653 60.8477 104.397 58.5852 109.466 59.5936C110.765 59.8519 112.004 59.0167 112.25 57.7149C113.221 52.6107 116.383 50.9001 121.222 52.874C122.438 53.3707 123.805 52.7938 124.299 51.5773C126.283 46.6838 129.807 45.6027 134.292 48.5348C135.373 49.2421 136.808 48.9487 137.528 47.8752C140.553 43.3579 144.385 42.9942 148.378 46.8694C149.281 47.7472 150.718 47.7472 151.621 46.8694C155.615 42.9917 159.447 43.3579 162.472 47.8752C163.189 48.9487 164.627 49.2396 165.708 48.5348C170.19 45.6027 173.714 46.6838 175.7 51.5773C176.194 52.7938 177.561 53.3707 178.778 52.874C183.619 50.9001 186.782 52.6107 187.75 57.7149C187.998 59.0167 189.237 59.8519 190.534 59.5936C195.601 58.5852 198.344 60.8477 198.319 66.0071C198.312 67.3339 199.37 68.3924 200.7 68.3874C205.859 68.3598 208.122 71.1038 207.113 76.1729C206.855 77.4721 207.69 78.7112 208.992 78.957C214.096 79.9277 215.807 83.0905 213.833 87.9289C213.336 89.1454 213.913 90.5123 215.129 91.0065C220.023 92.9905 221.104 96.5145 218.172 100.999C217.465 102.08 217.758 103.515 218.832 104.235C223.349 107.26 223.713 111.092 219.837 115.085C218.96 115.988 218.96 117.426 219.837 118.328Z" fill="#24376B"/>
<path d="M149.746 176.491C182.742 176.491 209.491 149.742 209.491 116.746C209.491 83.7491 182.742 57 149.746 57C116.749 57 90 83.7491 90 116.746C90 149.742 116.749 176.491 149.746 176.491Z" fill="#FAF8F3"/>
<line x1="25" y1="218.711" x2="275" y2="218.711" stroke="#AAAAAA"/>
<path d="M101.566 289.083C103.652 291.231 103.455 293.293 101.025 294.92C100.447 295.306 100.291 296.079 100.67 296.66C102.247 299.071 101.666 300.967 99.0334 302.035C98.3791 302.301 98.0688 303.036 98.3359 303.691C99.3977 306.295 98.4775 307.996 95.732 308.517C95.0318 308.65 94.5825 309.317 94.7214 310.014C95.2638 312.74 94.0469 314.216 91.2716 314.202C90.5579 314.198 89.9885 314.767 89.9912 315.483C90.0061 318.258 88.5301 319.475 85.8034 318.932C85.1045 318.793 84.438 319.243 84.3058 319.943C83.7837 322.688 82.0823 323.609 79.4798 322.547C78.8254 322.28 78.0901 322.59 77.8243 323.244C76.7571 325.877 74.8616 326.458 72.4492 324.881C71.8677 324.5 71.096 324.658 70.7088 325.236C69.0817 327.666 67.0201 327.861 64.8722 325.777C64.3865 325.305 63.6135 325.305 63.1278 325.777C60.9799 327.863 58.9183 327.666 57.2912 325.236C56.9053 324.658 56.1323 324.502 55.5508 324.881C53.1398 326.458 51.2442 325.877 50.1757 323.244C49.9099 322.59 49.1746 322.28 48.5202 322.547C45.9163 323.609 44.215 322.688 43.6942 319.943C43.5606 319.243 42.8941 318.793 42.1966 318.932C39.4713 319.475 37.9953 318.258 38.0088 315.483C38.0128 314.769 37.4435 314.199 36.7284 314.202C33.9531 314.217 32.7362 312.741 33.2786 310.014C33.4175 309.315 32.9682 308.649 32.268 308.517C29.5224 307.995 28.6023 306.293 29.6641 303.691C29.9312 303.036 29.6209 302.301 28.9666 302.035C26.3343 300.968 25.7528 299.072 27.33 296.66C27.7105 296.079 27.5526 295.307 26.9752 294.92C24.5453 293.293 24.3497 291.231 26.4342 289.083C26.9064 288.597 26.9064 287.824 26.4342 287.339C24.3484 285.191 24.5453 283.129 26.9752 281.502C27.5526 281.116 27.7092 280.343 27.33 279.762C25.7528 277.351 26.3343 275.455 28.9666 274.387C29.6209 274.121 29.9312 273.386 29.6641 272.731C28.6023 270.127 29.5224 268.426 32.268 267.905C32.9682 267.772 33.4175 267.105 33.2786 266.408C32.7362 263.682 33.9531 262.206 36.7284 262.22C37.4421 262.224 38.0115 261.654 38.0088 260.939C37.9939 258.164 39.4699 256.947 42.1966 257.489C42.8955 257.628 43.562 257.179 43.6942 256.479C44.2163 253.733 45.9177 252.813 48.5202 253.875C49.1746 254.142 49.9099 253.832 50.1757 253.178C51.2429 250.545 53.1384 249.964 55.5508 251.541C56.1323 251.921 56.904 251.764 57.2912 251.186C58.9183 248.756 60.9799 248.561 63.1278 250.645C63.6135 251.117 64.3865 251.117 64.8722 250.645C67.0201 248.559 69.0817 248.756 70.7088 251.186C71.0947 251.764 71.8677 251.92 72.4492 251.541C74.8602 249.964 76.7558 250.545 77.8243 253.178C78.0901 253.832 78.8254 254.142 79.4798 253.875C82.0837 252.813 83.785 253.733 84.3058 256.479C84.4394 257.179 85.1059 257.628 85.8034 257.489C88.5287 256.947 90.0047 258.164 89.9912 260.939C89.9872 261.653 90.5565 262.222 91.2716 262.22C94.0469 262.205 95.2638 263.681 94.7214 266.408C94.5825 267.106 95.0318 267.773 95.732 267.905C98.4775 268.427 99.3977 270.129 98.3359 272.731C98.0688 273.386 98.3791 274.121 99.0334 274.387C101.666 275.454 102.247 277.349 100.67 279.762C100.289 280.343 100.447 281.115 101.025 281.502C103.455 283.129 103.65 285.191 101.566 287.339C101.094 287.824 101.094 288.597 101.566 289.083Z" fill="#24376B"/>
<path d="M64.1374 320.345C81.8864 320.345 96.2748 305.957 96.2748 288.208C96.2748 270.459 81.8864 256.07 64.1374 256.07C46.3884 256.07 32 270.459 32 288.208C32 305.957 46.3884 320.345 64.1374 320.345Z" fill="#FAF8F3"/>
<path d="M62.585 296.748V300.544H64.0576V301.877H62.585V305.762H60.96V296.748H62.585ZM62.9785 306.803V308.098H54.8408V305.165H56.4658V306.803H62.9785ZM53.2158 303.388C54.0474 303.388 55.0122 303.381 56.0215 303.35V302.677C54.7646 302.505 53.9775 301.877 53.9902 300.976C53.9775 299.833 55.1074 299.16 56.8213 299.173C58.5225 299.16 59.6396 299.833 59.6523 300.976C59.6396 301.871 58.8716 302.499 57.6338 302.677V303.273C58.5859 303.216 59.5381 303.127 60.4268 302.994L60.541 304.111C58.1035 304.581 55.374 304.606 53.3809 304.632L53.2158 303.388ZM60.1348 297.688V298.843H53.5205V297.688H56.0215V296.71H57.6338V297.688H60.1348ZM56.8213 300.252C55.9961 300.252 55.5264 300.48 55.5391 300.976C55.5264 301.407 55.9961 301.648 56.8213 301.648C57.6338 301.648 58.0908 301.407 58.1035 300.976C58.0908 300.48 57.6338 300.252 56.8213 300.252ZM74.3154 296.761V303.413H72.7031V302.283H70.1006V300.988H72.7031V299.884H70.2148C69.4976 301.712 67.8599 302.969 65.3145 303.667L64.6797 302.385C67.3394 301.687 68.6406 300.417 68.8691 298.83H65.3018V297.535H70.6338C70.6338 297.91 70.6084 298.271 70.5576 298.614H72.7031V296.761H74.3154ZM70.4688 303.553C72.8174 303.553 74.3916 304.454 74.4043 305.889C74.3916 307.336 72.8174 308.25 70.4688 308.25C68.0947 308.25 66.5078 307.336 66.5205 305.889C66.5078 304.454 68.0947 303.553 70.4688 303.553ZM70.4688 304.822C69.0088 304.81 68.1328 305.178 68.1328 305.889C68.1328 306.6 69.0088 306.968 70.4688 306.968C71.9033 306.968 72.7793 306.6 72.7793 305.889C72.7793 305.178 71.9033 304.81 70.4688 304.822Z" fill="#555555"/>
<path d="M187.566 289.083C189.652 291.231 189.455 293.293 187.025 294.92C186.447 295.306 186.291 296.079 186.67 296.66C188.247 299.071 187.666 300.967 185.033 302.035C184.379 302.301 184.069 303.036 184.336 303.691C185.398 306.295 184.478 307.996 181.732 308.517C181.032 308.65 180.582 309.317 180.721 310.014C181.264 312.74 180.047 314.216 177.272 314.202C176.558 314.198 175.989 314.767 175.991 315.483C176.006 318.258 174.53 319.475 171.803 318.932C171.105 318.793 170.438 319.243 170.306 319.943C169.784 322.688 168.082 323.609 165.48 322.547C164.825 322.28 164.09 322.59 163.824 323.244C162.757 325.877 160.862 326.458 158.449 324.881C157.868 324.5 157.096 324.658 156.709 325.236C155.082 327.666 153.02 327.861 150.872 325.777C150.387 325.305 149.613 325.305 149.128 325.777C146.98 327.863 144.918 327.666 143.291 325.236C142.905 324.658 142.132 324.502 141.551 324.881C139.14 326.458 137.244 325.877 136.176 323.244C135.91 322.59 135.175 322.28 134.52 322.547C131.916 323.609 130.215 322.688 129.694 319.943C129.561 319.243 128.894 318.793 128.197 318.932C125.471 319.475 123.995 318.258 124.009 315.483C124.013 314.769 123.443 314.199 122.728 314.202C119.953 314.217 118.736 312.741 119.279 310.014C119.418 309.315 118.968 308.649 118.268 308.517C115.522 307.995 114.602 306.293 115.664 303.691C115.931 303.036 115.621 302.301 114.967 302.035C112.334 300.968 111.753 299.072 113.33 296.66C113.711 296.079 113.553 295.307 112.975 294.92C110.545 293.293 110.35 291.231 112.434 289.083C112.906 288.597 112.906 287.824 112.434 287.339C110.348 285.191 110.545 283.129 112.975 281.502C113.553 281.116 113.709 280.343 113.33 279.762C111.753 277.351 112.334 275.455 114.967 274.387C115.621 274.121 115.931 273.386 115.664 272.731C114.602 270.127 115.522 268.426 118.268 267.905C118.968 267.772 119.418 267.105 119.279 266.408C118.736 263.682 119.953 262.206 122.728 262.22C123.442 262.224 124.011 261.654 124.009 260.939C123.994 258.164 125.47 256.947 128.197 257.489C128.895 257.628 129.562 257.179 129.694 256.479C130.216 253.733 131.918 252.813 134.52 253.875C135.175 254.142 135.91 253.832 136.176 253.178C137.243 250.545 139.138 249.964 141.551 251.541C142.132 251.921 142.904 251.764 143.291 251.186C144.918 248.756 146.98 248.561 149.128 250.645C149.613 251.117 150.387 251.117 150.872 250.645C153.02 248.559 155.082 248.756 156.709 251.186C157.095 251.764 157.868 251.92 158.449 251.541C160.86 249.964 162.756 250.545 163.824 253.178C164.09 253.832 164.825 254.142 165.48 253.875C168.084 252.813 169.785 253.733 170.306 256.479C170.439 257.179 171.106 257.628 171.803 257.489C174.529 256.947 176.005 258.164 175.991 260.939C175.987 261.653 176.557 262.222 177.272 262.22C180.047 262.205 181.264 263.681 180.721 266.408C180.582 267.106 181.032 267.773 181.732 267.905C184.478 268.427 185.398 270.129 184.336 272.731C184.069 273.386 184.379 274.121 185.033 274.387C187.666 275.454 188.247 277.349 186.67 279.762C186.289 280.343 186.447 281.115 187.025 281.502C189.455 283.129 189.65 285.191 187.566 287.339C187.094 287.824 187.094 288.597 187.566 289.083Z" fill="#24376B"/>
<path d="M150.003 320.345C167.752 320.345 182.14 305.957 182.14 288.208C182.14 270.459 167.752 256.07 150.003 256.07C132.254 256.07 117.865 270.459 117.865 288.208C117.865 305.957 132.254 320.345 150.003 320.345Z" fill="#FAF8F3"/>
<path d="M143.596 299.363C143.583 301.433 144.472 303.527 146.325 304.416L145.348 305.711C144.11 305.102 143.278 303.959 142.796 302.562C142.294 304.061 141.399 305.286 140.092 305.927L139.089 304.619C141.044 303.718 141.971 301.509 141.971 299.363V297.637H143.596V299.363ZM148.458 296.748V301.204H150.159V302.575H148.458V308.301H146.833V296.748H148.458ZM160.29 296.748V308.301H158.678V296.748H160.29ZM150.629 305.038C151.511 305.032 152.521 305.032 153.574 305V304.022C152.305 303.8 151.479 303.013 151.492 301.928C151.479 300.633 152.66 299.757 154.361 299.757C156.075 299.757 157.269 300.633 157.269 301.928C157.269 303.007 156.443 303.794 155.174 304.022V304.949C156.139 304.905 157.116 304.829 158.043 304.708L158.157 305.901C155.631 306.333 152.901 306.358 150.845 306.358L150.629 305.038ZM157.878 298.03V299.3H150.857V298.03H153.574V296.799H155.187V298.03H157.878ZM154.361 300.988C153.574 300.988 153.016 301.331 153.028 301.928C153.016 302.537 153.574 302.867 154.361 302.867C155.174 302.867 155.72 302.537 155.72 301.928C155.72 301.331 155.174 300.988 154.361 300.988Z" fill="#555555"/>
<path d="M273.566 289.083C275.652 291.231 275.455 293.293 273.025 294.92C272.447 295.306 272.291 296.079 272.67 296.66C274.247 299.071 273.666 300.967 271.033 302.035C270.379 302.301 270.069 303.036 270.336 303.691C271.398 306.295 270.478 307.996 267.732 308.517C267.032 308.65 266.582 309.317 266.721 310.014C267.264 312.74 266.047 314.216 263.272 314.202C262.558 314.198 261.989 314.767 261.991 315.483C262.006 318.258 260.53 319.475 257.803 318.932C257.105 318.793 256.438 319.243 256.306 319.943C255.784 322.688 254.082 323.609 251.48 322.547C250.825 322.28 250.09 322.59 249.824 323.244C248.757 325.877 246.862 326.458 244.449 324.881C243.868 324.5 243.096 324.658 242.709 325.236C241.082 327.666 239.02 327.861 236.872 325.777C236.387 325.305 235.613 325.305 235.128 325.777C232.98 327.863 230.918 327.666 229.291 325.236C228.905 324.658 228.132 324.502 227.551 324.881C225.14 326.458 223.244 325.877 222.176 323.244C221.91 322.59 221.175 322.28 220.52 322.547C217.916 323.609 216.215 322.688 215.694 319.943C215.561 319.243 214.894 318.793 214.197 318.932C211.471 319.475 209.995 318.258 210.009 315.483C210.013 314.769 209.443 314.199 208.728 314.202C205.953 314.217 204.736 312.741 205.279 310.014C205.418 309.315 204.968 308.649 204.268 308.517C201.522 307.995 200.602 306.293 201.664 303.691C201.931 303.036 201.621 302.301 200.967 302.035C198.334 300.968 197.753 299.072 199.33 296.66C199.711 296.079 199.553 295.307 198.975 294.92C196.545 293.293 196.35 291.231 198.434 289.083C198.906 288.597 198.906 287.824 198.434 287.339C196.348 285.191 196.545 283.129 198.975 281.502C199.553 281.116 199.709 280.343 199.33 279.762C197.753 277.351 198.334 275.455 200.967 274.387C201.621 274.121 201.931 273.386 201.664 272.731C200.602 270.127 201.522 268.426 204.268 267.905C204.968 267.772 205.418 267.105 205.279 266.408C204.736 263.682 205.953 262.206 208.728 262.22C209.442 262.224 210.011 261.654 210.009 260.939C209.994 258.164 211.47 256.947 214.197 257.489C214.895 257.628 215.562 257.179 215.694 256.479C216.216 253.733 217.918 252.813 220.52 253.875C221.175 254.142 221.91 253.832 222.176 253.178C223.243 250.545 225.138 249.964 227.551 251.541C228.132 251.921 228.904 251.764 229.291 251.186C230.918 248.756 232.98 248.561 235.128 250.645C235.613 251.117 236.387 251.117 236.872 250.645C239.02 248.559 241.082 248.756 242.709 251.186C243.095 251.764 243.868 251.92 244.449 251.541C246.86 249.964 248.756 250.545 249.824 253.178C250.09 253.832 250.825 254.142 251.48 253.875C254.084 252.813 255.785 253.733 256.306 256.479C256.439 257.179 257.106 257.628 257.803 257.489C260.529 256.947 262.005 258.164 261.991 260.939C261.987 261.653 262.557 262.222 263.272 262.22C266.047 262.205 267.264 263.681 266.721 266.408C266.582 267.106 267.032 267.773 267.732 267.905C270.478 268.427 271.398 270.129 270.336 272.731C270.069 273.386 270.379 274.121 271.033 274.387C273.666 275.454 274.247 277.349 272.67 279.762C272.289 280.343 272.447 281.115 273.025 281.502C275.455 283.129 275.65 285.191 273.566 287.339C273.094 287.824 273.094 288.597 273.566 289.083Z" fill="#24376B"/>
<path d="M236.003 320.345C253.752 320.345 268.14 305.957 268.14 288.208C268.14 270.459 253.752 256.07 236.003 256.07C218.254 256.07 203.865 270.459 203.865 288.208C203.865 305.957 218.254 320.345 236.003 320.345Z" fill="#FAF8F3"/>
<path d="M218.824 299.896C218.824 301.763 219.776 303.756 221.719 304.568L220.843 305.838C219.478 305.26 218.539 304.111 218.024 302.702C217.498 304.232 216.539 305.501 215.181 306.13L214.254 304.848C216.171 303.997 217.161 301.852 217.161 299.896V299.186H214.711V297.865H221.236V299.186H218.824V299.896ZM224.017 296.748V308.301H222.379V296.748H224.017ZM227.432 297.776V300.379H229.006V297.776H230.504V305.559H225.908V297.776H227.432ZM227.432 304.264H229.006V301.648H227.432V304.264ZM235.595 296.748V308.301H234.046V302.474H233.005V307.768H231.469V296.913H233.005V301.153H234.046V296.748H235.595ZM246.119 297.421V298.462C246.119 299.541 246.119 300.722 245.827 302.334H247.351V303.642H242.844V308.313H241.219V303.642H236.813V302.334H244.189C244.481 300.842 244.507 299.712 244.507 298.716H238.02V297.421H246.119ZM258.624 305.647V306.955H248.049V305.647H252.518V303.07H254.143V305.647H258.624ZM257.697 297.624V298.932H254.181C254.314 300.455 255.749 301.871 258.23 302.232L257.596 303.515C255.571 303.159 254.073 302.169 253.33 300.798C252.594 302.194 251.108 303.21 249.115 303.578L248.48 302.296C250.88 301.909 252.321 300.461 252.454 298.932H248.925V297.624H257.697Z" fill="#555555"/>
</svg>
