<svg width="300" height="334" viewBox="0 0 300 334" fill="none" xmlns="http://www.w3.org/2000/svg">
<rect width="300" height="334" fill="#E8EBF2"/>
<path d="M218.496 0H81.4961V117H218.496V0Z" fill="#014489"/>
<path d="M97.9805 35V21.5664H106.126V23.0508H99.6504V27.541H105.699V29.0068H99.6504V33.5156H106.219V35H97.9805ZM116.09 24.9434C115.941 23.626 114.735 22.8652 113.121 22.8652C111.34 22.8652 110.171 23.793 110.171 25.0732C110.171 26.4834 111.748 27.0029 112.769 27.2627L114.104 27.6338C115.552 28.0049 117.908 28.8398 117.908 31.3447C117.908 33.5342 116.146 35.2412 113.028 35.2412C110.134 35.2412 108.334 33.7383 108.186 31.5117H109.893C110.041 33.0146 111.433 33.7197 113.028 33.7197C114.884 33.7197 116.275 32.7734 116.275 31.3076C116.275 30.0088 115.032 29.5078 113.622 29.0996L111.971 28.6543C109.855 28.042 108.557 26.9658 108.557 25.1475C108.557 22.8838 110.579 21.3809 113.177 21.3809C115.774 21.3809 117.648 22.9023 117.723 24.9434H116.09ZM129.468 25.7598C128.893 24.0342 127.575 22.9395 125.664 22.9395C123.289 22.9395 121.396 24.8135 121.396 28.2832C121.396 31.7529 123.289 33.627 125.775 33.627C128.048 33.627 129.598 32.1055 129.635 29.7305H126.128V28.2646H131.268V29.7119C131.268 33.0518 128.967 35.1855 125.775 35.1855C122.194 35.1855 119.782 32.5322 119.782 28.2832C119.782 24.0342 122.213 21.3809 125.664 21.3809C128.503 21.3809 130.692 23.1621 131.193 25.7598H129.468ZM146.649 25.8711V28.2275H153.459V29.4336H138.43V28.2275H145.221V25.8711H146.649ZM145.944 30.7881C149.488 30.7881 151.604 31.79 151.622 33.627C151.604 35.4639 149.488 36.4658 145.944 36.4658C142.363 36.4658 140.248 35.4639 140.248 33.627C140.248 31.79 142.363 30.7881 145.944 30.7881ZM145.944 31.9385C143.272 31.9385 141.714 32.5508 141.732 33.627C141.714 34.7031 143.272 35.334 145.944 35.334C148.579 35.334 150.156 34.7031 150.156 33.627C150.156 32.5508 148.579 31.9385 145.944 31.9385ZM152.123 20.7871V21.9746H146.891C146.983 23.8115 149.748 25.231 152.624 25.5371L152.086 26.6875C149.386 26.3628 146.854 25.1846 145.944 23.3477C145.044 25.1846 142.521 26.3628 139.803 26.6875L139.265 25.5371C142.141 25.231 144.887 23.8301 144.998 21.9746H139.803V20.7871H152.123ZM167.746 20.0078V24.2383H170.232V25.4814H167.746V29.6006H166.299V20.0078H167.746ZM158.766 30.3242V32.0869H166.299V30.3242H167.746V36.2803H157.318V30.3242H158.766ZM158.766 35.1113H166.299V33.2373H158.766V35.1113ZM164.722 21.7148V22.9209H154.888V21.7148H159.081V19.8594H160.528V21.7148H164.722ZM159.805 23.6816C162.18 23.6816 163.757 24.8135 163.775 26.5762C163.757 28.3389 162.18 29.4707 159.805 29.4707C157.411 29.4707 155.815 28.3389 155.834 26.5762C155.815 24.8135 157.411 23.6816 159.805 23.6816ZM159.805 24.8135C158.246 24.7949 157.207 25.5186 157.226 26.5762C157.207 27.6523 158.246 28.3574 159.805 28.3574C161.345 28.3574 162.384 27.6523 162.402 26.5762C162.384 25.5186 161.345 24.7949 159.805 24.8135ZM186.319 27.8564V29.0811H171.271V27.8564H186.319ZM184.557 25.0918V26.2793H173.183V20.6758H184.445V21.9004H174.611V25.0918H184.557ZM178.786 30.5283C182.33 30.5283 184.445 31.6045 184.464 33.4971C184.445 35.4082 182.33 36.4658 178.786 36.4658C175.224 36.4658 173.09 35.4082 173.09 33.4971C173.09 31.6045 175.224 30.5283 178.786 30.5283ZM178.786 31.6602C176.133 31.6787 174.556 32.3467 174.574 33.4971C174.556 34.666 176.133 35.3154 178.786 35.3154C181.402 35.3154 182.998 34.666 182.998 33.4971C182.998 32.3467 181.402 31.6787 178.786 31.6602ZM191.106 29.4521V31.6416H199.363V29.4521H200.811V36.2803H189.659V29.4521H191.106ZM191.106 35.0928H199.363V32.792H191.106V35.0928ZM200.811 20.7686V21.9746C200.811 23.2363 200.811 24.7021 200.365 26.7617H202.796V27.9678H187.692V26.7617H198.937C199.363 24.7114 199.363 23.2363 199.363 21.9746H189.604V20.7686H200.811Z" fill="white"/>
<path d="M219.837 118.33C223.715 122.323 223.349 126.156 218.832 129.181C217.758 129.898 217.467 131.336 218.172 132.417C221.104 136.899 220.023 140.423 215.129 142.409C213.913 142.903 213.336 144.27 213.833 145.487C215.807 150.328 214.096 153.491 208.992 154.459C207.69 154.707 206.855 155.946 207.113 157.243C208.122 162.309 205.859 165.053 200.7 165.028C199.373 165.021 198.314 166.079 198.319 167.409C198.347 172.568 195.603 174.831 190.534 173.822C189.235 173.564 187.996 174.399 187.75 175.701C186.779 180.805 183.616 182.516 178.778 180.542C177.561 180.045 176.194 180.622 175.7 181.838C173.716 186.732 170.192 187.813 165.708 184.881C164.627 184.174 163.192 184.467 162.472 185.541C159.447 190.058 155.615 190.422 151.621 186.546C150.718 185.669 149.281 185.669 148.378 186.546C144.385 190.424 140.553 190.058 137.528 185.541C136.81 184.467 135.373 184.176 134.292 184.881C129.81 187.813 126.286 186.732 124.299 181.838C123.805 180.622 122.438 180.045 121.222 180.542C116.381 182.516 113.218 180.805 112.25 175.701C112.002 174.399 110.763 173.564 109.466 173.822C104.399 174.831 101.655 172.568 101.68 167.409C101.688 166.082 100.629 165.023 99.3 165.028C94.1406 165.056 91.8782 162.312 92.8865 157.243C93.1449 155.944 92.3096 154.705 91.0079 154.459C85.9036 153.488 84.193 150.325 86.167 145.487C86.6636 144.27 86.0867 142.903 84.8703 142.409C79.9767 140.425 78.8957 136.901 81.8278 132.417C82.5351 131.336 82.2416 129.901 81.1681 129.181C76.6508 126.156 76.2871 122.323 80.1623 118.33C81.0402 117.427 81.0402 115.99 80.1623 115.087C76.2846 111.094 76.6508 107.262 81.1681 104.237C82.2416 103.519 82.5326 102.082 81.8278 101.001C78.8957 96.519 79.9767 92.9949 84.8703 91.0084C86.0867 90.5143 86.6636 89.1473 86.167 87.9308C84.193 83.09 85.9036 79.9271 91.0079 78.9589C92.3096 78.7106 93.1449 77.4716 92.8865 76.1748C91.8782 71.1082 94.1406 68.3642 99.3 68.3893C100.627 68.3968 101.685 67.3384 101.68 66.009C101.653 60.8496 104.397 58.5872 109.466 59.5955C110.765 59.8539 112.004 59.0186 112.25 57.7169C113.221 52.6126 116.383 50.902 121.222 52.876C122.438 53.3726 123.805 52.7957 124.299 51.5792C126.283 46.6857 129.807 45.6047 134.292 48.5368C135.373 49.2441 136.808 48.9506 137.528 47.8771C140.553 43.3598 144.385 42.9961 148.378 46.8713C149.281 47.7492 150.718 47.7492 151.621 46.8713C155.615 42.9936 159.447 43.3598 162.472 47.8771C163.189 48.9506 164.627 49.2416 165.708 48.5368C170.19 45.6047 173.714 46.6857 175.7 51.5792C176.194 52.7957 177.561 53.3726 178.778 52.876C183.619 50.902 186.782 52.6126 187.75 57.7169C187.998 59.0186 189.237 59.8539 190.534 59.5955C195.601 58.5872 198.344 60.8496 198.319 66.009C198.312 67.3359 199.37 68.3943 200.7 68.3893C205.859 68.3617 208.122 71.1057 207.113 76.1748C206.855 77.4741 207.69 78.7131 208.992 78.9589C214.096 79.9296 215.807 83.0925 213.833 87.9308C213.336 89.1473 213.913 90.5143 215.129 91.0084C220.023 92.9924 221.104 96.5165 218.172 101.001C217.465 102.082 217.758 103.517 218.832 104.237C223.349 107.262 223.713 111.094 219.837 115.087C218.96 115.99 218.96 117.427 219.837 118.33Z" fill="#24376B"/>
<path d="M149.746 176.492C182.742 176.492 209.491 149.743 209.491 116.747C209.491 83.75 182.742 57.0009 149.746 57.0009C116.749 57.0009 90 83.75 90 116.747C90 149.743 116.749 176.492 149.746 176.492Z" fill="#FAF8F3"/>
<line x1="25" y1="211.713" x2="275" y2="211.713" stroke="#AAAAAA"/>
<path d="M101.566 275.085C103.652 277.233 103.455 279.294 101.025 280.921C100.447 281.307 100.291 282.08 100.67 282.662C102.247 285.073 101.666 286.968 99.0334 288.037C98.3791 288.303 98.0688 289.038 98.3359 289.692C99.3977 292.296 98.4775 293.998 95.732 294.518C95.0318 294.652 94.5825 295.319 94.7214 296.016C95.2638 298.741 94.0469 300.217 91.2716 300.204C90.5579 300.2 89.9885 300.769 89.9912 301.484C90.0061 304.259 88.5301 305.476 85.8034 304.934C85.1045 304.795 84.438 305.244 84.3058 305.945C83.7837 308.69 82.0823 309.61 79.4798 308.549C78.8254 308.281 78.0901 308.592 77.8243 309.246C76.7571 311.878 74.8616 312.46 72.4492 310.883C71.8677 310.502 71.096 310.66 70.7088 311.237C69.0817 313.667 67.0201 313.863 64.8722 311.778C64.3865 311.306 63.6135 311.306 63.1278 311.778C60.9799 313.864 58.9183 313.667 57.2912 311.237C56.9053 310.66 56.1323 310.503 55.5508 310.883C53.1398 312.46 51.2442 311.878 50.1757 309.246C49.9099 308.592 49.1746 308.281 48.5202 308.549C45.9163 309.61 44.215 308.69 43.6942 305.945C43.5606 305.244 42.8941 304.795 42.1966 304.934C39.4713 305.476 37.9953 304.259 38.0088 301.484C38.0128 300.771 37.4435 300.201 36.7284 300.204C33.9531 300.219 32.7362 298.743 33.2786 296.016C33.4175 295.317 32.9682 294.651 32.268 294.518C29.5224 293.996 28.6023 292.295 29.6641 289.692C29.9312 289.038 29.6209 288.303 28.9666 288.037C26.3343 286.97 25.7528 285.074 27.33 282.662C27.7105 282.08 27.5526 281.309 26.9752 280.921C24.5453 279.294 24.3497 277.233 26.4342 275.085C26.9064 274.599 26.9064 273.826 26.4342 273.34C24.3484 271.193 24.5453 269.131 26.9752 267.504C27.5526 267.118 27.7092 266.345 27.33 265.763C25.7528 263.352 26.3343 261.457 28.9666 260.388C29.6209 260.123 29.9312 259.387 29.6641 258.733C28.6023 256.129 29.5224 254.428 32.268 253.907C32.9682 253.773 33.4175 253.107 33.2786 252.409C32.7362 249.684 33.9531 248.208 36.7284 248.221C37.4421 248.225 38.0115 247.656 38.0088 246.941C37.9939 244.166 39.4699 242.949 42.1966 243.491C42.8955 243.63 43.562 243.181 43.6942 242.481C44.2163 239.735 45.9177 238.815 48.5202 239.877C49.1746 240.144 49.9099 239.834 50.1757 239.179C51.2429 236.547 53.1384 235.965 55.5508 237.543C56.1323 237.923 56.904 237.765 57.2912 237.188C58.9183 234.758 60.9799 234.562 63.1278 236.647C63.6135 237.119 64.3865 237.119 64.8722 236.647C67.0201 234.561 69.0817 234.758 70.7088 237.188C71.0947 237.765 71.8677 237.922 72.4492 237.543C74.8602 235.965 76.7558 236.547 77.8243 239.179C78.0901 239.834 78.8254 240.144 79.4798 239.877C82.0837 238.815 83.785 239.735 84.3058 242.481C84.4394 243.181 85.1059 243.63 85.8034 243.491C88.5287 242.949 90.0047 244.166 89.9912 246.941C89.9872 247.655 90.5565 248.224 91.2716 248.221C94.0469 248.207 95.2638 249.683 94.7214 252.409C94.5825 253.108 95.0318 253.775 95.732 253.907C98.4775 254.429 99.3977 256.13 98.3359 258.733C98.0688 259.387 98.3791 260.123 99.0334 260.388C101.666 261.455 102.247 263.351 100.67 265.763C100.289 266.345 100.447 267.117 101.025 267.504C103.455 269.131 103.65 271.193 101.566 273.34C101.094 273.826 101.094 274.599 101.566 275.085Z" fill="#24376B"/>
<path d="M64.1374 306.349C81.8864 306.349 96.2748 291.96 96.2748 274.211C96.2748 256.462 81.8864 242.074 64.1374 242.074C46.3884 242.074 32 256.462 32 274.211C32 291.96 46.3884 306.349 64.1374 306.349Z" fill="#FAF8F3"/>
<path d="M62.585 282.752V286.548H64.0576V287.881H62.585V291.766H60.96V282.752H62.585ZM62.9785 292.807V294.102H54.8408V291.169H56.4658V292.807H62.9785ZM53.2158 289.392C54.0474 289.392 55.0122 289.385 56.0215 289.354V288.681C54.7646 288.509 53.9775 287.881 53.9902 286.979C53.9775 285.837 55.1074 285.164 56.8213 285.177C58.5225 285.164 59.6396 285.837 59.6523 286.979C59.6396 287.875 58.8716 288.503 57.6338 288.681V289.277C58.5859 289.22 59.5381 289.131 60.4268 288.998L60.541 290.115C58.1035 290.585 55.374 290.61 53.3809 290.636L53.2158 289.392ZM60.1348 283.691V284.847H53.5205V283.691H56.0215V282.714H57.6338V283.691H60.1348ZM56.8213 286.256C55.9961 286.256 55.5264 286.484 55.5391 286.979C55.5264 287.411 55.9961 287.652 56.8213 287.652C57.6338 287.652 58.0908 287.411 58.1035 286.979C58.0908 286.484 57.6338 286.256 56.8213 286.256ZM74.3154 282.765V289.417H72.7031V288.287H70.1006V286.992H72.7031V285.888H70.2148C69.4976 287.716 67.8599 288.973 65.3145 289.671L64.6797 288.389C67.3394 287.69 68.6406 286.421 68.8691 284.834H65.3018V283.539H70.6338C70.6338 283.914 70.6084 284.275 70.5576 284.618H72.7031V282.765H74.3154ZM70.4688 289.557C72.8174 289.557 74.3916 290.458 74.4043 291.893C74.3916 293.34 72.8174 294.254 70.4688 294.254C68.0947 294.254 66.5078 293.34 66.5205 291.893C66.5078 290.458 68.0947 289.557 70.4688 289.557ZM70.4688 290.826C69.0088 290.813 68.1328 291.182 68.1328 291.893C68.1328 292.604 69.0088 292.972 70.4688 292.972C71.9033 292.972 72.7793 292.604 72.7793 291.893C72.7793 291.182 71.9033 290.813 70.4688 290.826Z" fill="#555555"/>
<path d="M187.566 275.085C189.652 277.233 189.455 279.294 187.025 280.921C186.447 281.307 186.291 282.08 186.67 282.662C188.247 285.073 187.666 286.968 185.033 288.037C184.379 288.303 184.069 289.038 184.336 289.692C185.398 292.296 184.478 293.998 181.732 294.518C181.032 294.652 180.582 295.319 180.721 296.016C181.264 298.741 180.047 300.217 177.272 300.204C176.558 300.2 175.989 300.769 175.991 301.484C176.006 304.259 174.53 305.476 171.803 304.934C171.105 304.795 170.438 305.244 170.306 305.945C169.784 308.69 168.082 309.61 165.48 308.549C164.825 308.281 164.09 308.592 163.824 309.246C162.757 311.878 160.862 312.46 158.449 310.883C157.868 310.502 157.096 310.66 156.709 311.237C155.082 313.667 153.02 313.863 150.872 311.778C150.387 311.306 149.613 311.306 149.128 311.778C146.98 313.864 144.918 313.667 143.291 311.237C142.905 310.66 142.132 310.503 141.551 310.883C139.14 312.46 137.244 311.878 136.176 309.246C135.91 308.592 135.175 308.281 134.52 308.549C131.916 309.61 130.215 308.69 129.694 305.945C129.561 305.244 128.894 304.795 128.197 304.934C125.471 305.476 123.995 304.259 124.009 301.484C124.013 300.771 123.443 300.201 122.728 300.204C119.953 300.219 118.736 298.743 119.279 296.016C119.418 295.317 118.968 294.651 118.268 294.518C115.522 293.996 114.602 292.295 115.664 289.692C115.931 289.038 115.621 288.303 114.967 288.037C112.334 286.97 111.753 285.074 113.33 282.662C113.711 282.08 113.553 281.309 112.975 280.921C110.545 279.294 110.35 277.233 112.434 275.085C112.906 274.599 112.906 273.826 112.434 273.34C110.348 271.193 110.545 269.131 112.975 267.504C113.553 267.118 113.709 266.345 113.33 265.763C111.753 263.352 112.334 261.457 114.967 260.388C115.621 260.123 115.931 259.387 115.664 258.733C114.602 256.129 115.522 254.428 118.268 253.907C118.968 253.773 119.418 253.107 119.279 252.409C118.736 249.684 119.953 248.208 122.728 248.221C123.442 248.225 124.011 247.656 124.009 246.941C123.994 244.166 125.47 242.949 128.197 243.491C128.895 243.63 129.562 243.181 129.694 242.481C130.216 239.735 131.918 238.815 134.52 239.877C135.175 240.144 135.91 239.834 136.176 239.179C137.243 236.547 139.138 235.965 141.551 237.543C142.132 237.923 142.904 237.765 143.291 237.188C144.918 234.758 146.98 234.562 149.128 236.647C149.613 237.119 150.387 237.119 150.872 236.647C153.02 234.561 155.082 234.758 156.709 237.188C157.095 237.765 157.868 237.922 158.449 237.543C160.86 235.965 162.756 236.547 163.824 239.179C164.09 239.834 164.825 240.144 165.48 239.877C168.084 238.815 169.785 239.735 170.306 242.481C170.439 243.181 171.106 243.63 171.803 243.491C174.529 242.949 176.005 244.166 175.991 246.941C175.987 247.655 176.557 248.224 177.272 248.221C180.047 248.207 181.264 249.683 180.721 252.409C180.582 253.108 181.032 253.775 181.732 253.907C184.478 254.429 185.398 256.13 184.336 258.733C184.069 259.387 184.379 260.123 185.033 260.388C187.666 261.455 188.247 263.351 186.67 265.763C186.289 266.345 186.447 267.117 187.025 267.504C189.455 269.131 189.65 271.193 187.566 273.34C187.094 273.826 187.094 274.599 187.566 275.085Z" fill="#24376B"/>
<path d="M150.003 306.349C167.752 306.349 182.14 291.96 182.14 274.211C182.14 256.462 167.752 242.074 150.003 242.074C132.254 242.074 117.865 256.462 117.865 274.211C117.865 291.96 132.254 306.349 150.003 306.349Z" fill="#FAF8F3"/>
<path d="M143.596 285.367C143.583 287.437 144.472 289.531 146.325 290.42L145.348 291.715C144.11 291.105 143.278 289.963 142.796 288.566C142.294 290.064 141.399 291.29 140.092 291.931L139.089 290.623C141.044 289.722 141.971 287.513 141.971 285.367V283.641H143.596V285.367ZM148.458 282.752V287.208H150.159V288.579H148.458V294.305H146.833V282.752H148.458ZM160.29 282.752V294.305H158.678V282.752H160.29ZM150.629 291.042C151.511 291.036 152.521 291.036 153.574 291.004V290.026C152.305 289.804 151.479 289.017 151.492 287.932C151.479 286.637 152.66 285.761 154.361 285.761C156.075 285.761 157.269 286.637 157.269 287.932C157.269 289.011 156.443 289.798 155.174 290.026V290.953C156.139 290.909 157.116 290.833 158.043 290.712L158.157 291.905C155.631 292.337 152.901 292.362 150.845 292.362L150.629 291.042ZM157.878 284.034V285.304H150.857V284.034H153.574V282.803H155.187V284.034H157.878ZM154.361 286.992C153.574 286.992 153.016 287.335 153.028 287.932C153.016 288.541 153.574 288.871 154.361 288.871C155.174 288.871 155.72 288.541 155.72 287.932C155.72 287.335 155.174 286.992 154.361 286.992Z" fill="#555555"/>
<path d="M273.566 275.085C275.652 277.233 275.455 279.294 273.025 280.921C272.447 281.307 272.291 282.08 272.67 282.662C274.247 285.073 273.666 286.968 271.033 288.037C270.379 288.303 270.069 289.038 270.336 289.692C271.398 292.296 270.478 293.998 267.732 294.518C267.032 294.652 266.582 295.319 266.721 296.016C267.264 298.741 266.047 300.217 263.272 300.204C262.558 300.2 261.989 300.769 261.991 301.484C262.006 304.259 260.53 305.476 257.803 304.934C257.105 304.795 256.438 305.244 256.306 305.945C255.784 308.69 254.082 309.61 251.48 308.549C250.825 308.281 250.09 308.592 249.824 309.246C248.757 311.878 246.862 312.46 244.449 310.883C243.868 310.502 243.096 310.66 242.709 311.237C241.082 313.667 239.02 313.863 236.872 311.778C236.387 311.306 235.613 311.306 235.128 311.778C232.98 313.864 230.918 313.667 229.291 311.237C228.905 310.66 228.132 310.503 227.551 310.883C225.14 312.46 223.244 311.878 222.176 309.246C221.91 308.592 221.175 308.281 220.52 308.549C217.916 309.61 216.215 308.69 215.694 305.945C215.561 305.244 214.894 304.795 214.197 304.934C211.471 305.476 209.995 304.259 210.009 301.484C210.013 300.771 209.443 300.201 208.728 300.204C205.953 300.219 204.736 298.743 205.279 296.016C205.418 295.317 204.968 294.651 204.268 294.518C201.522 293.996 200.602 292.295 201.664 289.692C201.931 289.038 201.621 288.303 200.967 288.037C198.334 286.97 197.753 285.074 199.33 282.662C199.711 282.08 199.553 281.309 198.975 280.921C196.545 279.294 196.35 277.233 198.434 275.085C198.906 274.599 198.906 273.826 198.434 273.34C196.348 271.193 196.545 269.131 198.975 267.504C199.553 267.118 199.709 266.345 199.33 265.763C197.753 263.352 198.334 261.457 200.967 260.388C201.621 260.123 201.931 259.387 201.664 258.733C200.602 256.129 201.522 254.428 204.268 253.907C204.968 253.773 205.418 253.107 205.279 252.409C204.736 249.684 205.953 248.208 208.728 248.221C209.442 248.225 210.011 247.656 210.009 246.941C209.994 244.166 211.47 242.949 214.197 243.491C214.895 243.63 215.562 243.181 215.694 242.481C216.216 239.735 217.918 238.815 220.52 239.877C221.175 240.144 221.91 239.834 222.176 239.179C223.243 236.547 225.138 235.965 227.551 237.543C228.132 237.923 228.904 237.765 229.291 237.188C230.918 234.758 232.98 234.562 235.128 236.647C235.613 237.119 236.387 237.119 236.872 236.647C239.02 234.561 241.082 234.758 242.709 237.188C243.095 237.765 243.868 237.922 244.449 237.543C246.86 235.965 248.756 236.547 249.824 239.179C250.09 239.834 250.825 240.144 251.48 239.877C254.084 238.815 255.785 239.735 256.306 242.481C256.439 243.181 257.106 243.63 257.803 243.491C260.529 242.949 262.005 244.166 261.991 246.941C261.987 247.655 262.557 248.224 263.272 248.221C266.047 248.207 267.264 249.683 266.721 252.409C266.582 253.108 267.032 253.775 267.732 253.907C270.478 254.429 271.398 256.13 270.336 258.733C270.069 259.387 270.379 260.123 271.033 260.388C273.666 261.455 274.247 263.351 272.67 265.763C272.289 266.345 272.447 267.117 273.025 267.504C275.455 269.131 275.65 271.193 273.566 273.34C273.094 273.826 273.094 274.599 273.566 275.085Z" fill="#24376B"/>
<path d="M236.003 306.349C253.752 306.349 268.14 291.96 268.14 274.211C268.14 256.462 253.752 242.074 236.003 242.074C218.254 242.074 203.865 256.462 203.865 274.211C203.865 291.96 218.254 306.349 236.003 306.349Z" fill="#FAF8F3"/>
<path d="M218.824 285.9C218.824 287.767 219.776 289.76 221.719 290.572L220.843 291.842C219.478 291.264 218.539 290.115 218.024 288.706C217.498 290.236 216.539 291.505 215.181 292.134L214.254 290.852C216.171 290.001 217.161 287.855 217.161 285.9V285.189H214.711V283.869H221.236V285.189H218.824V285.9ZM224.017 282.752V294.305H222.379V282.752H224.017ZM227.432 283.78V286.383H229.006V283.78H230.504V291.562H225.908V283.78H227.432ZM227.432 290.268H229.006V287.652H227.432V290.268ZM235.595 282.752V294.305H234.046V288.478H233.005V293.771H231.469V282.917H233.005V287.157H234.046V282.752H235.595ZM246.119 283.425V284.466C246.119 285.545 246.119 286.726 245.827 288.338H247.351V289.646H242.844V294.317H241.219V289.646H236.813V288.338H244.189C244.481 286.846 244.507 285.716 244.507 284.72H238.02V283.425H246.119ZM258.624 291.651V292.959H248.049V291.651H252.518V289.074H254.143V291.651H258.624ZM257.697 283.628V284.936H254.181C254.314 286.459 255.749 287.875 258.23 288.236L257.596 289.519C255.571 289.163 254.073 288.173 253.33 286.802C252.594 288.198 251.108 289.214 249.115 289.582L248.48 288.3C250.88 287.913 252.321 286.465 252.454 284.936H248.925V283.628H257.697Z" fill="#555555"/>
</svg>
