<svg width="326" height="120" viewBox="0 0 326 120" fill="none" xmlns="http://www.w3.org/2000/svg">
<path d="M50.0774 49.146H40.9472V32.3636H28.6376V49.146H27.2827C21.2704 49.146 16.3743 44.2499 16.3743 38.2374C16.3743 32.225 21.2627 27.3289 27.2827 27.3289H49.0997V15.458H0V27.3289H6.85917C5.08087 30.5699 4.07239 34.2882 4.07239 38.2374C4.07239 42.1867 5.08087 45.905 6.85917 49.146H0V61.0169H50.0774V49.146Z" fill="#622C80"/>
<path d="M58.6621 15.4658V49.1461H70.964V27.3367H82.2651V15.4658H58.6621Z" fill="#622C80"/>
<path d="M49.2021 67.7217H36.8926C36.8926 80.2854 47.1082 90.5088 59.6795 90.5088H71.8967V78.6379H60.1106C54.0905 78.6379 49.2021 73.7418 49.2021 67.7217Z" fill="#622C80"/>
<path d="M132.341 78.6382H123.211V61.8558H110.909V78.6382H109.554C103.542 78.6382 98.6457 73.7498 98.6457 67.7296C98.6457 61.7095 103.534 56.8211 109.554 56.8211H131.371V44.9502H82.2715V56.8211H89.1307C87.3523 60.0621 86.3439 63.7804 86.3439 67.7296C86.3439 71.6789 87.3523 75.3895 89.1307 78.6382H82.2715V90.5091H132.349V78.6382H132.341Z" fill="#622C80"/>
<path d="M140.928 44.9502V78.6382H153.23V56.8288H164.531V44.9502H140.928Z" fill="#622C80"/>
<path d="M131.462 97.2139H119.152C119.152 109.778 129.376 120.001 141.939 120.001H154.156V108.13H142.37C136.35 108.13 131.462 103.234 131.462 97.2139Z" fill="#622C80"/>
<path d="M169.326 67.7296C169.326 80.2934 179.549 90.5091 192.105 90.5091H205.108V78.6382H192.544C186.532 78.6382 181.636 73.7498 181.636 67.7296C181.636 61.7095 186.524 56.8211 192.544 56.8211H205.108V44.9502H192.544C179.981 44.9502 169.334 55.1659 169.334 67.7296H169.326Z" fill="#622C80"/>
<path d="M325.693 110.402H282.682V90.5094H282.066C269.51 90.5094 259.287 80.2937 259.287 67.73C259.287 55.1663 269.942 44.9505 282.497 44.9505H285.577C290.434 44.9505 294.384 41.0013 294.384 36.1436C294.384 31.2859 290.434 27.3367 285.577 27.3367H270.049V15.4658H286.016C297.417 15.4658 306.693 24.7423 306.693 36.1513C306.693 47.5603 297.417 56.8291 286.016 56.8291H282.505C276.493 56.8291 271.597 61.7175 271.597 67.7377C271.597 73.7578 276.485 78.6462 282.505 78.6462H294.999V98.5388H325.7V110.41L325.693 110.402Z" fill="#622C80"/>
<path d="M237.332 44.9502V55.8588H225.392V44.9502H213.082V78.6382H225.392V67.7296H237.332V78.6382H249.633V44.9502H237.332Z" fill="#622C80"/>
<path d="M130.063 0.400315C130.048 0.331029 129.932 0 129.547 0H117.168C116.468 0 115.783 0.184761 115.175 0.531187L103.658 7.18257C102.426 7.89082 101.664 9.21493 101.664 10.6314V23.9342C101.664 25.3584 102.426 26.6748 103.658 27.3831L106.799 29.1999C107.068 29.3538 107.407 29.3538 107.676 29.1999L114.574 25.189C114.759 25.0813 114.759 24.8195 114.574 24.7117L109.439 21.7479V12.864L109.593 12.7331L116.222 8.907L129.824 1.00079C130.163 0.800629 130.094 0.461901 130.071 0.392616L130.063 0.400315Z" fill="#00489D"/>
<path d="M132.665 23.9407V10.638C132.665 9.21379 131.903 7.89737 130.671 7.18912L127.53 5.37231C127.261 5.21834 126.922 5.21834 126.652 5.37231L119.755 9.38315C119.57 9.49093 119.57 9.75268 119.755 9.86045L124.889 12.8243V21.7082L124.736 21.8391L118.107 25.6652L104.504 33.5714C104.166 33.7715 104.235 34.1103 104.258 34.1796C104.273 34.2488 104.389 34.5799 104.774 34.5799H117.153C117.853 34.5799 118.538 34.3951 119.147 34.0487L130.663 27.3973C131.895 26.6891 132.657 25.3649 132.657 23.9484L132.665 23.9407Z" fill="#00A3A3"/>
<path d="M111.424 14.4024V20.1993C111.424 20.3686 111.601 20.4687 111.747 20.384L117.151 17.2508V10.915L111.562 14.156C111.478 14.2099 111.424 14.3023 111.424 14.4024Z" fill="#00A3A3"/>
<path d="M122.882 14.4024V20.1993C122.882 20.3686 122.705 20.4687 122.558 20.384L117.154 17.2508V10.915L122.743 14.156C122.828 14.2099 122.882 14.3023 122.882 14.4024Z" fill="#00489D"/>
<path d="M145.928 19.8225L143.033 23.1636V27.9366H138.283V6.66602H143.033V16.6893L151.54 6.66602H157.36L149.007 16.2967L157.798 27.9366H151.871L145.92 19.8225H145.928Z" fill="#00489D"/>
<path d="M156.652 17.2895C156.652 10.8459 161.533 6.11914 168.138 6.11914C174.743 6.11914 179.624 10.8459 179.624 17.2895C179.624 23.733 174.743 28.4598 168.138 28.4598C161.533 28.4598 156.652 23.733 156.652 17.2895ZM174.866 17.2895C174.866 13.2709 171.995 10.3994 168.13 10.3994C164.266 10.3994 161.394 13.2709 161.394 17.2895C161.394 21.308 164.266 24.1795 168.13 24.1795C171.995 24.1795 174.866 21.2849 174.866 17.2895Z" fill="#00489D"/>
<path d="M182.436 6.66602H190.68C197.724 6.66602 202.082 11.0233 202.082 17.3128C202.082 23.6024 197.724 27.9366 190.68 27.9366H182.436V6.66602ZM190.757 23.7333C194.83 23.7333 197.332 21.4084 197.332 17.3128C197.332 13.2173 194.83 10.8693 190.757 10.8693H187.185V23.7333H190.757Z" fill="#00489D"/>
<path d="M204.93 6.66602H208.717L216.054 18.5677L223.39 6.66602H227.178V27.9366H222.428V16.2736L217.493 24.4415H214.622L209.687 16.2736V27.9366H204.937V6.66602H204.93Z" fill="#00489D"/>
<path d="M243.939 23.8103H235.694L234.208 27.9366H229.305L237.55 6.66602H242.484L250.729 27.9366H245.433L243.947 23.8103H243.939ZM242.476 19.6839L239.813 12.2704L237.149 19.6839H242.476Z" fill="#00489D"/>
</svg>
